<?xml version="1.0" encoding="UTF-8"?>
<!DOCTYPE svg PUBLIC "-//W3C//DTD SVG 1.0//EN" "http://www.w3.org/TR/2001/REC-SVG-20010904/DTD/svg10.dtd">
<!-- Creator: CorelDRAW 2018 (64 Bit) -->
<svg xmlns="http://www.w3.org/2000/svg" xml:space="preserve" width="210mm" height="297mm" version="1.0" style="shape-rendering:geometricPrecision; text-rendering:geometricPrecision; image-rendering:optimizeQuality; fill-rule:evenodd; clip-rule:evenodd"
viewBox="0 0 210 297"
 xmlns:xlink="http://www.w3.org/1999/xlink">
 <defs>
  <style type="text/css">
   <![CDATA[
    .fil0 {fill:#3213F7}
   ]]>
  </style>
 </defs>
 <g id="Camada_x0020_1">
  <metadata id="CorelCorpID_0Corel-Layer"/>
  <path class="fil0" d="M101.4414 153.1434c-0.2911,0 -0.5491,-0.108 -0.774,-0.3241 -0.2249,-0.2161 -0.4829,-0.3241 -0.3373,-0.7739l0 -2.2357 1.1113 0 0 2.2357 7.1172 0 0 -2.2357 1.0981 0 0 2.2225c0,0.3087 -0.1125,0.571 -0.3374,0.7871 -0.2249,0.2161 -0.3374,0.4784 -0.7607,0.3241l-7.1172 0zm3.5586 -2.5796l-2.8972 -2.8972 0.7938 -0.7805 1.5478 1.5743 0 -4.8023 1.1112 0 0 4.8022 1.5478 -1.5743 0.807 0.7806 -2.9104 2.8972z"/>
 </g>
</svg>
