<?xml version="1.0" encoding="UTF-8"?>
<!DOCTYPE svg PUBLIC "-//W3C//DTD SVG 1.0//EN" "http://www.w3.org/TR/2001/REC-SVG-20010904/DTD/svg10.dtd">
<!-- Creator: CorelDRAW 2018 (64 Bit) -->
<svg xmlns="http://www.w3.org/2000/svg" xml:space="preserve" width="9.3691mm" height="9.5317mm" version="1.0" style="shape-rendering:geometricPrecision; text-rendering:geometricPrecision; image-rendering:optimizeQuality; fill-rule:evenodd; clip-rule:evenodd"
viewBox="0 0 9.3137 9.4754"
 xmlns:xlink="http://www.w3.org/1999/xlink">
 <defs>
  <style type="text/css">
   <![CDATA[
    .fil0 {fill:#41C947}
   ]]>
  </style>
 </defs>
 <g id="Camada_x0020_1">
  <metadata id="CorelCorpID_0Corel-Layer"/>
  <path class="fil0" d="M1.147 9.4292c-0.2894,0 -0.5459,-0.1074 -0.7694,-0.3222 -0.2236,-0.2148 -0.48,-0.3222 -0.3353,-0.7693l0 -2.2225 1.1047 0 0 2.2225 7.0751 0 0 -2.2225 1.0916 0 0 2.2094c0,0.3069 -0.1118,0.5676 -0.3354,0.7824 -0.2236,0.2148 -0.3354,0.4756 -0.7562,0.3222l-7.0751 0zm3.5376 -2.5644l-2.8801 -2.8801 0.7891 -0.7759 1.5387 1.565 0 -4.7739 1.1046 0 0 4.7738 1.5387 -1.565 0.8022 0.776 -2.8932 2.8801z"/>
 </g>
</svg>
