<?xml version="1.0" encoding="UTF-8"?>
<!DOCTYPE svg PUBLIC "-//W3C//DTD SVG 1.0//EN" "http://www.w3.org/TR/2001/REC-SVG-20010904/DTD/svg10.dtd">
<!-- Creator: CorelDRAW 2018 (64 Bit) -->
<svg xmlns="http://www.w3.org/2000/svg" xml:space="preserve" width="146.878mm" height="56.9089mm" version="1.0" style="shape-rendering:geometricPrecision; text-rendering:geometricPrecision; image-rendering:optimizeQuality; fill-rule:evenodd; clip-rule:evenodd"
viewBox="0 0 154.7354 59.9533"
 xmlns:xlink="http://www.w3.org/1999/xlink">
 <defs>
  <style type="text/css">
   <![CDATA[
    .str1 {stroke:#D8325E;stroke-width:0.2107;stroke-miterlimit:22.9256}
    .str0 {stroke:#373435;stroke-width:1.0535;stroke-miterlimit:22.9256}
    .fil1 {fill:none}
    .fil0 {fill:#373435;fill-rule:nonzero}
    .fil3 {fill:#ED3237;fill-rule:nonzero}
    .fil2 {fill:#00A859;fill-rule:nonzero}
    .fil4 {fill:#3E4095;fill-rule:nonzero}
   ]]>
  </style>
 </defs>
 <g id="Camada_x0020_1">
  <metadata id="CorelCorpID_0Corel-Layer"/>
  <path class="fil0" d="M56.7614 33.2032l-1.5698 0 0 -9.9959c-0.3777,0.3627 -0.8742,0.7225 -1.4867,1.0823 -0.6124,0.3598 -1.1655,0.6303 -1.653,0.8087l0 -1.5163c0.8771,-0.4103 1.6442,-0.9098 2.3013,-1.4985 0.6571,-0.5857 1.1239,-1.1536 1.3974,-1.7066l1.0109 0 0 12.8263z"/>
  <path id="1" class="fil0" d="M69.0198 31.7047l0 1.4985 -8.4558 0c-0.0119,-0.3776 0.0505,-0.7403 0.1843,-1.0912 0.2171,-0.5737 0.565,-1.1417 1.0436,-1.6976 0.4787,-0.556 1.1625,-1.1982 2.0516,-1.9266 1.3825,-1.1387 2.322,-2.0397 2.8126,-2.7057 0.4936,-0.6659 0.7403,-1.2962 0.7403,-1.8909 0,-0.6214 -0.2229,-1.1446 -0.669,-1.5728 -0.4459,-0.4252 -1.0287,-0.6393 -1.7452,-0.6393 -0.7582,0 -1.3647,0.226 -1.8196,0.6779 -0.4549,0.4489 -0.6838,1.0733 -0.6898,1.873l-1.6055 -0.1604c0.1101,-1.2012 0.5263,-2.117 1.2458,-2.7473 0.7225,-0.6303 1.6889,-0.9454 2.9048,-0.9454 1.225,0 2.1973,0.3389 2.9108,1.0198 0.7166,0.6809 1.0733,1.5253 1.0733,2.5302 0,0.5114 -0.1041,1.0139 -0.3151,1.5073 -0.2082,0.4966 -0.556,1.0168 -1.0406,1.5639 -0.4877,0.5441 -1.2934,1.2963 -2.4172,2.2477 -0.9425,0.7909 -1.5491,1.326 -1.8166,1.6085 -0.2676,0.2825 -0.4876,0.565 -0.663,0.8504l6.2705 0z"/>
  <g id="_1522262648672">
   <path class="fil1 str0" d="M78.3642 16.3371l0 18.8779"/>
  </g>
  <g id="_1522262651136">
   <path class="fil1 str0" d="M121.4444 35.215l-43.0802 0"/>
  </g>
  <path class="fil0" d="M92.4577 32.9802l0 -3.0505 -5.548 0 0 -1.445 5.8334 -8.2773 1.2844 0 0 8.2773 1.7304 0 0 1.445 -1.7304 0 0 3.0505 -1.5698 0zm0 -4.4955l0 -5.7471 -4.005 5.7471 4.005 0z"/>
  <path class="fil0" d="M56.602 53.3291c0,-1.5074 0.1547,-2.7264 0.4639,-3.6482 0.3122,-0.9247 0.773,-1.6352 1.3855,-2.1318 0.6096,-0.4965 1.3796,-0.7432 2.3073,-0.7432 0.6838,0 1.2844,0.1367 1.8046,0.4132 0.5174,0.2765 0.9455,0.675 1.2785,1.1953 0.333,0.5173 0.5946,1.1506 0.785,1.8969 0.1932,0.7462 0.2883,1.7542 0.2883,3.0177 0,1.4985 -0.1545,2.7116 -0.4608,3.6332 -0.3063,0.9248 -0.7672,1.6353 -1.3796,2.1348 -0.6096,0.4995 -1.3826,0.7492 -2.3161,0.7492 -1.228,0 -2.1942,-0.4371 -2.896,-1.3141 -0.8414,-1.0704 -1.2606,-2.8038 -1.2606,-5.2031zm1.6055 0.0059c0,2.1021 0.2438,3.4995 0.7344,4.1892 0.4905,0.6928 1.0971,1.0377 1.8166,1.0377 0.7194,0 1.326,-0.3479 1.8165,-1.0406 0.4906,-0.6957 0.7344,-2.0901 0.7344,-4.1863 0,-2.102 -0.2438,-3.4994 -0.7344,-4.1892 -0.4876,-0.6927 -1.1001,-1.0376 -1.8345,-1.0376 -0.7195,0 -1.2963,0.3063 -1.7274,0.9157 -0.5381,0.776 -0.8057,2.2151 -0.8057,4.3111z"/>
  <path class="fil0" d="M87.118 56.3499l1.5698 -0.2141c0.1814,0.8919 0.4847,1.5341 0.9158,1.9266 0.4311,0.3924 0.9603,0.5887 1.5876,0.5887 0.7433,0 1.3707,-0.2557 1.8762,-0.7672 0.5054,-0.5114 0.7581,-1.1446 0.7581,-1.8999 0,-0.7194 -0.2348,-1.3141 -0.7076,-1.7839 -0.4698,-0.4668 -1.0673,-0.7016 -1.7958,-0.7016 -0.2973,0 -0.666,0.0594 -1.109,0.1754l0.1754 -1.3737c0.1041,0.0119 0.1904,0.0178 0.2527,0.0178 0.6719,0 1.2725,-0.1754 1.8108,-0.5233 0.5352,-0.3479 0.8028,-0.883 0.8028,-1.6055 0,-0.5737 -0.1963,-1.0495 -0.5857,-1.4271 -0.3895,-0.3776 -0.892,-0.5649 -1.5074,-0.5649 -0.6125,0 -1.1209,0.1932 -1.5282,0.5797 -0.4073,0.3865 -0.669,0.9663 -0.785,1.7393l-1.5698 -0.2854c0.1932,-1.0525 0.6274,-1.8702 1.3082,-2.45 0.6778,-0.5797 1.5253,-0.8681 2.5361,-0.8681 0.6957,0 1.3379,0.1486 1.9237,0.4489 0.5887,0.2973 1.0377,0.7047 1.3469,1.219 0.3122,0.5174 0.4668,1.0645 0.4668,1.6442 0,0.55 -0.1488,1.0495 -0.4431,1.5014 -0.2973,0.452 -0.7373,0.8117 -1.3171,1.0793 0.7551,0.1725 1.3409,0.5352 1.7602,1.0852 0.4162,0.5471 0.6243,1.2368 0.6243,2.0604 0,1.1149 -0.4073,2.0634 -1.219,2.8394 -0.8147,0.776 -1.8434,1.1625 -3.0862,1.1625 -1.1208,0 -2.0515,-0.336 -2.7918,-1.0049 -0.7433,-0.669 -1.1655,-1.5342 -1.2696,-2.5986z"/>
  <path class="fil2" d="M20.0213 55.9928l0 -4.6293 0.7047 0 0 0.7091c0.1798,-0.3286 0.3464,-0.5456 0.4995,-0.6497 0.1532,-0.1056 0.3211,-0.1576 0.504,-0.1576 0.2646,0 0.5337,0.0833 0.8072,0.2483l-0.2794 0.724c-0.1904,-0.107 -0.3806,-0.1606 -0.5709,-0.1606 -0.171,0 -0.3241,0.052 -0.4593,0.1547 -0.1354,0.1025 -0.232,0.2453 -0.2899,0.4281 -0.0878,0.278 -0.1308,0.5827 -0.1308,0.9142l0 2.4187 -0.785 0z"/>
  <path id="1" class="fil2" d="M26.158 54.4943l0.8117 0.107c-0.1264,0.4712 -0.3627,0.8385 -0.7076,1.0986 -0.3449,0.2602 -0.785,0.391 -1.3216,0.391 -0.6749,0 -1.21,-0.2081 -1.6055,-0.6243 -0.3955,-0.4148 -0.5931,-0.999 -0.5931,-1.7498 0,-0.776 0.1992,-1.3796 0.599,-1.8077 0.3999,-0.4297 0.9188,-0.6438 1.5565,-0.6438 0.6169,0 1.1209,0.2096 1.5119,0.6304 0.391,0.4207 0.5872,1.0123 0.5872,1.7749 0,0.0461 -0.0015,0.116 -0.0044,0.2082l-3.4475 0c0.0297,0.5069 0.1725,0.8964 0.4311,1.1655 0.2572,0.2691 0.5797,0.4043 0.9648,0.4043 0.287,0 0.5322,-0.0757 0.7344,-0.2274 0.2036,-0.1516 0.3642,-0.3939 0.4831,-0.7269zm-2.5688 -1.2577l2.5778 0c-0.0342,-0.3895 -0.1338,-0.6809 -0.2958,-0.8757 -0.2483,-0.3017 -0.5724,-0.4533 -0.9693,-0.4533 -0.3598,0 -0.6615,0.1204 -0.9069,0.3612 -0.2438,0.2408 -0.379,0.5634 -0.4058,0.9677z"/>
  <path id="2" class="fil2" d="M27.6491 54.6103l0.776 -0.1249c0.0431,0.3108 0.165,0.5486 0.3642,0.7151 0.1992,0.165 0.4787,0.2482 0.8354,0.2482 0.3612,0 0.6288,-0.0728 0.8043,-0.22 0.1739,-0.1457 0.2616,-0.3182 0.2616,-0.5159 0,-0.1769 -0.0788,-0.3166 -0.2348,-0.4177 -0.1101,-0.0698 -0.3777,-0.1576 -0.8028,-0.2661 -0.5738,-0.1442 -0.9708,-0.2691 -1.1938,-0.3746 -0.2214,-0.107 -0.3895,-0.2527 -0.5039,-0.44 -0.1145,-0.1858 -0.1725,-0.3924 -0.1725,-0.6184 0,-0.2066 0.0475,-0.397 0.1412,-0.5724 0.0951,-0.1754 0.223,-0.3211 0.3851,-0.437 0.1219,-0.0892 0.2884,-0.1651 0.498,-0.2276 0.2111,-0.0624 0.4356,-0.0937 0.6765,-0.0937 0.3627,0 0.6809,0.052 0.9544,0.1576 0.2751,0.1041 0.4772,0.2468 0.6081,0.4252 0.1293,0.1799 0.22,0.4192 0.2691,0.7195l-0.7672 0.107c-0.0341,-0.2408 -0.1353,-0.4296 -0.3017,-0.5649 -0.1666,-0.1353 -0.4014,-0.2022 -0.7062,-0.2022 -0.3583,0 -0.6155,0.0594 -0.7685,0.1784 -0.1532,0.1189 -0.2305,0.2586 -0.2305,0.4177 0,0.1011 0.0313,0.1933 0.0951,0.2751 0.0639,0.0832 0.1636,0.1531 0.3004,0.2081 0.0788,0.0297 0.3077,0.0966 0.6913,0.2007 0.553,0.1472 0.9395,0.2691 1.1595,0.3627 0.2201,0.0937 0.3925,0.232 0.5174,0.4103 0.1263,0.1798 0.1888,0.4029 0.1888,0.6704 0,0.2602 -0.0759,0.5055 -0.2289,0.7359 -0.1531,0.2304 -0.3731,0.4089 -0.66,0.5352 -0.2884,0.1264 -0.614,0.1888 -0.9767,0.1888 -0.6006,0 -1.06,-0.1248 -1.3751,-0.3731 -0.3152,-0.2497 -0.5159,-0.6184 -0.6035,-1.1074z"/>
  <path id="3" class="fil2" d="M34.1248 55.2927l0.107 0.6927c-0.22,0.0461 -0.4177,0.07 -0.5902,0.07 -0.2839,0 -0.5039,-0.0447 -0.6615,-0.1353 -0.1561,-0.0907 -0.2661,-0.2082 -0.3301,-0.3553 -0.0639,-0.1472 -0.0951,-0.4564 -0.0951,-0.9276l0 -2.667 -0.5797 0 0 -0.6065 0.5797 0 0 -1.1447 0.785 -0.4712 0 1.616 0.7849 0 0 0.6065 -0.7849 0 0 2.7116c0,0.2245 0.0134,0.3687 0.0416,0.4326 0.0268,0.0639 0.0713,0.1145 0.1338,0.1532 0.0625,0.0372 0.1516,0.0565 0.2676,0.0565 0.0862,0 0.2007,-0.0104 0.3419,-0.0312z"/>
  <path id="4" class="fil2" d="M34.6049 53.6782c0,-0.8548 0.2379,-1.4881 0.715,-1.8999 0.397,-0.342 0.8831,-0.5129 1.4554,-0.5129 0.6348,0 1.1552,0.2082 1.5595,0.6244 0.4029,0.4148 0.605,0.9901 0.605,1.723 0,0.5946 -0.0891,1.0614 -0.2676,1.4019 -0.1784,0.3404 -0.4386,0.605 -0.7804,0.7938 -0.3405,0.1888 -0.7136,0.2824 -1.1165,0.2824 -0.6481,0 -1.1714,-0.2066 -1.5713,-0.6214 -0.3999,-0.4148 -0.5991,-1.0124 -0.5991,-1.7914zm0.8028 0.0015c0,0.5916 0.1294,1.0346 0.388,1.3275 0.2602,0.2943 0.5857,0.4415 0.9796,0.4415 0.3895,0 0.7136,-0.1472 0.9737,-0.443 0.2586,-0.2958 0.388,-0.7463 0.388,-1.3513 0,-0.5709 -0.1308,-1.0035 -0.391,-1.2963 -0.2602,-0.2943 -0.5843,-0.4415 -0.9708,-0.4415 -0.3939,0 -0.7194,0.1457 -0.9796,0.4386 -0.2586,0.2929 -0.388,0.7344 -0.388,1.3246z"/>
  <path class="fil3 str1" d="M52.9661 29.6989l-10.4437 0 0 0.9386 -2.9357 -1.6724 2.9357 -1.6724 0 0.9386 10.4437 0 0 1.4677zm-5.2219 0m-5.2219 0.4693m-1.4678 -0.3669m0 -1.6724m1.4678 -0.3669m5.2219 0.4692m5.2219 0.7339"/>
  <path class="fil3 str1" d="M100.1077 53.1497l10.4437 0 0 -0.9386 2.9357 1.6724 -2.9357 1.6724 0 -0.9386 -10.4437 0 0 -1.4677zm5.2219 0m5.2219 -0.4693m1.4678 0.3669m0 1.6724m-1.4678 0.3669m-5.2219 -0.4692m-5.2219 -0.7339"/>
  <path class="fil3 str1" d="M100.1077 26.6138l10.4437 0 0 -0.9386 2.9357 1.6724 -2.9357 1.6724 0 -0.9386 -10.4437 0 0 -1.4677zm5.2219 0m5.2219 -0.4693m1.4678 0.3669m0 1.6724m-1.4678 0.3669m-5.2219 -0.4692m-5.2219 -0.7339"/>
  <path class="fil2" d="M3.2824 30.8826l0 -0.5872c-0.2928,0.4564 -0.724,0.6853 -1.2933,0.6853 -0.3687,0 -0.7076,-0.101 -1.0154,-0.3047 -0.3092,-0.2023 -0.5486,-0.4862 -0.7195,-0.8489 -0.1695,-0.3642 -0.2542,-0.7819 -0.2542,-1.2547 0,-0.4608 0.0773,-0.8785 0.2304,-1.2547 0.1547,-0.3746 0.3851,-0.663 0.6928,-0.8622 0.3063,-0.2007 0.6512,-0.3004 1.0302,-0.3004 0.2795,0 0.5278,0.0595 0.7448,0.177 0.217,0.1175 0.3939,0.272 0.5306,0.4608l0 -2.2968 0.785 0 0 6.3865 -0.7314 0zm-2.4796 -2.3087c0,0.5917 0.1248,1.0333 0.3761,1.3261 0.2498,0.2928 0.5456,0.4385 0.886,0.4385 0.3434,0 0.6348,-0.1397 0.8757,-0.4192 0.2394,-0.2795 0.3598,-0.7062 0.3598,-1.28 0,-0.6303 -0.1219,-1.0942 -0.3672,-1.39 -0.2438,-0.2958 -0.5455,-0.443 -0.9038,-0.443 -0.3493,0 -0.6407,0.1413 -0.8757,0.4252 -0.2333,0.2839 -0.3508,0.7314 -0.3508,1.3424z"/>
  <path id="1" class="fil2" d="M5.2552 25.3881l0 -0.892 0.785 0 0 0.892 -0.785 0zm0 5.4945l0 -4.6293 0.785 0 0 4.6293 -0.785 0z"/>
  <path id="2" class="fil2" d="M8.5019 30.8826l-1.7468 -4.6293 0.84 0 0.9901 2.7725c0.107,0.2988 0.2066,0.6096 0.2973,0.9321 0.0698,-0.2438 0.1666,-0.5367 0.2929,-0.8801l1.0287 -2.8245 0.8057 0 -1.7527 4.6293 -0.7551 0z"/>
  <path id="3" class="fil2" d="M11.6967 25.3881l0 -0.892 0.785 0 0 0.892 -0.785 0zm0 5.4945l0 -4.6293 0.785 0 0 4.6293 -0.785 0z"/>
  <path id="4" class="fil2" d="M16.6663 30.8826l0 -0.5872c-0.2928,0.4564 -0.724,0.6853 -1.2933,0.6853 -0.3687,0 -0.7076,-0.101 -1.0154,-0.3047 -0.3092,-0.2023 -0.5486,-0.4862 -0.7195,-0.8489 -0.1695,-0.3642 -0.2542,-0.7819 -0.2542,-1.2547 0,-0.4608 0.0773,-0.8785 0.2304,-1.2547 0.1547,-0.3746 0.3851,-0.663 0.6928,-0.8622 0.3063,-0.2007 0.6512,-0.3004 1.0302,-0.3004 0.2795,0 0.5278,0.0595 0.7448,0.177 0.217,0.1175 0.3939,0.272 0.5306,0.4608l0 -2.2968 0.785 0 0 6.3865 -0.7314 0zm-2.4796 -2.3087c0,0.5917 0.1248,1.0333 0.3761,1.3261 0.2498,0.2928 0.5456,0.4385 0.886,0.4385 0.3434,0 0.6348,-0.1397 0.8757,-0.4192 0.2394,-0.2795 0.3598,-0.7062 0.3598,-1.28 0,-0.6303 -0.1219,-1.0942 -0.3672,-1.39 -0.2438,-0.2958 -0.5455,-0.443 -0.9038,-0.443 -0.3493,0 -0.6407,0.1413 -0.8757,0.4252 -0.2333,0.2839 -0.3508,0.7314 -0.3508,1.3424z"/>
  <path id="5" class="fil2" d="M21.7966 29.3841l0.8117 0.107c-0.1264,0.4712 -0.3627,0.8385 -0.7076,1.0986 -0.3449,0.2602 -0.785,0.391 -1.3216,0.391 -0.6749,0 -1.21,-0.2081 -1.6055,-0.6243 -0.3955,-0.4148 -0.5931,-0.999 -0.5931,-1.7498 0,-0.776 0.1992,-1.3796 0.599,-1.8077 0.3999,-0.4297 0.9188,-0.6438 1.5565,-0.6438 0.6169,0 1.1209,0.2096 1.5119,0.6304 0.391,0.4207 0.5872,1.0123 0.5872,1.7749 0,0.0461 -0.0015,0.116 -0.0044,0.2082l-3.4475 0c0.0297,0.5069 0.1725,0.8964 0.4311,1.1655 0.2572,0.2691 0.5797,0.4043 0.9648,0.4043 0.287,0 0.5322,-0.0757 0.7344,-0.2274 0.2036,-0.1516 0.3642,-0.3939 0.4831,-0.7269zm-2.5688 -1.2577l2.5778 0c-0.0342,-0.3895 -0.1338,-0.6809 -0.2958,-0.8757 -0.2483,-0.3017 -0.5724,-0.4533 -0.9693,-0.4533 -0.3598,0 -0.6615,0.1204 -0.9069,0.3612 -0.2438,0.2408 -0.379,0.5634 -0.4058,0.9677z"/>
  <path id="6" class="fil2" d="M23.5999 30.8826l0 -4.6293 0.7047 0 0 0.6571c0.3389,-0.504 0.8295,-0.7553 1.4703,-0.7553 0.2795,0 0.5352,0.0506 0.7685,0.1502 0.2335,0.0996 0.4089,0.2319 0.5247,0.3939 0.116,0.162 0.1977,0.3553 0.2439,0.5783 0.0282,0.1457 0.0431,0.3999 0.0431,0.7626l0 2.8424 -0.785 0 0 -2.8126c0,-0.3196 -0.0297,-0.559 -0.0907,-0.7166 -0.0609,-0.1576 -0.1694,-0.2839 -0.3241,-0.379 -0.1545,-0.0937 -0.3374,-0.1413 -0.5456,-0.1413 -0.333,0 -0.6199,0.1056 -0.8622,0.3182 -0.2423,0.2111 -0.3627,0.614 -0.3627,1.2056l0 2.5258 -0.785 0z"/>
  <path id="7" class="fil2" d="M31.5488 30.8826l0 -0.5872c-0.2928,0.4564 -0.724,0.6853 -1.2933,0.6853 -0.3687,0 -0.7076,-0.101 -1.0154,-0.3047 -0.3092,-0.2023 -0.5486,-0.4862 -0.7195,-0.8489 -0.1695,-0.3642 -0.2542,-0.7819 -0.2542,-1.2547 0,-0.4608 0.0773,-0.8785 0.2304,-1.2547 0.1547,-0.3746 0.3851,-0.663 0.6928,-0.8622 0.3063,-0.2007 0.6512,-0.3004 1.0302,-0.3004 0.2795,0 0.5278,0.0595 0.7448,0.177 0.217,0.1175 0.3939,0.272 0.5306,0.4608l0 -2.2968 0.785 0 0 6.3865 -0.7314 0zm-2.4796 -2.3087c0,0.5917 0.1248,1.0333 0.3761,1.3261 0.2498,0.2928 0.5456,0.4385 0.886,0.4385 0.3434,0 0.6348,-0.1397 0.8757,-0.4192 0.2394,-0.2795 0.3598,-0.7062 0.3598,-1.28 0,-0.6303 -0.1219,-1.0942 -0.3672,-1.39 -0.2438,-0.2958 -0.5455,-0.443 -0.9038,-0.443 -0.3493,0 -0.6407,0.1413 -0.8757,0.4252 -0.2333,0.2839 -0.3508,0.7314 -0.3508,1.3424z"/>
  <path id="8" class="fil2" d="M33.2272 28.568c0,-0.8548 0.2379,-1.4881 0.715,-1.8999 0.397,-0.342 0.8831,-0.5129 1.4554,-0.5129 0.6348,0 1.1552,0.2082 1.5595,0.6244 0.4029,0.4148 0.605,0.9901 0.605,1.723 0,0.5946 -0.0891,1.0614 -0.2676,1.4019 -0.1784,0.3404 -0.4386,0.605 -0.7804,0.7938 -0.3405,0.1888 -0.7136,0.2824 -1.1165,0.2824 -0.6481,0 -1.1714,-0.2066 -1.5713,-0.6214 -0.3999,-0.4148 -0.5991,-1.0124 -0.5991,-1.7914zm0.8028 0.0015c0,0.5916 0.1294,1.0346 0.388,1.3275 0.2602,0.2943 0.5857,0.4415 0.9796,0.4415 0.3895,0 0.7136,-0.1472 0.9737,-0.443 0.2586,-0.2958 0.388,-0.7463 0.388,-1.3513 0,-0.5709 -0.1308,-1.0035 -0.391,-1.2963 -0.2602,-0.2943 -0.5843,-0.4415 -0.9708,-0.4415 -0.3939,0 -0.7194,0.1457 -0.9796,0.4386 -0.2586,0.2929 -0.388,0.7344 -0.388,1.3246z"/>
  <path class="fil2" d="M120.6445 29.9906l0 -0.5872c-0.2928,0.4564 -0.724,0.6853 -1.2933,0.6853 -0.3687,0 -0.7076,-0.101 -1.0154,-0.3047 -0.3092,-0.2023 -0.5486,-0.4862 -0.7195,-0.8489 -0.1695,-0.3642 -0.2542,-0.7819 -0.2542,-1.2547 0,-0.4608 0.0773,-0.8785 0.2304,-1.2547 0.1547,-0.3746 0.3851,-0.663 0.6928,-0.8622 0.3063,-0.2007 0.6512,-0.3004 1.0302,-0.3004 0.2795,0 0.5278,0.0595 0.7448,0.177 0.217,0.1175 0.3939,0.272 0.5306,0.4608l0 -2.2968 0.785 0 0 6.3865 -0.7314 0zm-2.4796 -2.3087c0,0.5917 0.1248,1.0333 0.3761,1.3261 0.2498,0.2928 0.5456,0.4385 0.886,0.4385 0.3434,0 0.6348,-0.1397 0.8757,-0.4192 0.2394,-0.2795 0.3598,-0.7062 0.3598,-1.28 0,-0.6303 -0.1219,-1.0942 -0.3672,-1.39 -0.2438,-0.2958 -0.5455,-0.443 -0.9038,-0.443 -0.3493,0 -0.6407,0.1413 -0.8757,0.4252 -0.2333,0.2839 -0.3508,0.7314 -0.3508,1.3424z"/>
  <path id="1" class="fil2" d="M122.6172 24.4961l0 -0.892 0.785 0 0 0.892 -0.785 0zm0 5.4945l0 -4.6293 0.785 0 0 4.6293 -0.785 0z"/>
  <path id="2" class="fil2" d="M125.864 29.9906l-1.7468 -4.6293 0.84 0 0.9901 2.7725c0.107,0.2988 0.2066,0.6096 0.2973,0.9321 0.0698,-0.2438 0.1666,-0.5367 0.2929,-0.8801l1.0287 -2.8245 0.8057 0 -1.7527 4.6293 -0.7551 0z"/>
  <path id="3" class="fil2" d="M129.0587 24.4961l0 -0.892 0.785 0 0 0.892 -0.785 0zm0 5.4945l0 -4.6293 0.785 0 0 4.6293 -0.785 0z"/>
  <path id="4" class="fil2" d="M130.7282 28.6081l0.776 -0.1249c0.0431,0.3108 0.165,0.5486 0.3642,0.7151 0.1992,0.165 0.4787,0.2482 0.8354,0.2482 0.3612,0 0.6288,-0.0728 0.8043,-0.22 0.1739,-0.1457 0.2616,-0.3182 0.2616,-0.5159 0,-0.1769 -0.0788,-0.3166 -0.2348,-0.4177 -0.1101,-0.0698 -0.3777,-0.1576 -0.8028,-0.2661 -0.5738,-0.1442 -0.9708,-0.2691 -1.1938,-0.3746 -0.2214,-0.107 -0.3895,-0.2527 -0.5039,-0.44 -0.1145,-0.1858 -0.1725,-0.3924 -0.1725,-0.6184 0,-0.2066 0.0475,-0.397 0.1412,-0.5724 0.0951,-0.1754 0.223,-0.3211 0.3851,-0.437 0.1219,-0.0892 0.2884,-0.1651 0.498,-0.2276 0.2111,-0.0624 0.4356,-0.0937 0.6765,-0.0937 0.3627,0 0.6809,0.052 0.9544,0.1576 0.2751,0.1041 0.4772,0.2468 0.6081,0.4252 0.1293,0.1799 0.22,0.4192 0.2691,0.7195l-0.7672 0.107c-0.0341,-0.2408 -0.1353,-0.4296 -0.3017,-0.5649 -0.1666,-0.1353 -0.4014,-0.2022 -0.7062,-0.2022 -0.3583,0 -0.6155,0.0594 -0.7685,0.1784 -0.1532,0.1189 -0.2305,0.2586 -0.2305,0.4177 0,0.1011 0.0313,0.1933 0.0951,0.2751 0.0639,0.0832 0.1636,0.1531 0.3004,0.2081 0.0788,0.0297 0.3077,0.0966 0.6913,0.2007 0.553,0.1472 0.9395,0.2691 1.1595,0.3627 0.2201,0.0937 0.3925,0.232 0.5174,0.4103 0.1263,0.1798 0.1888,0.4029 0.1888,0.6704 0,0.2602 -0.0759,0.5055 -0.2289,0.7359 -0.1531,0.2304 -0.3731,0.4089 -0.66,0.5352 -0.2884,0.1264 -0.614,0.1888 -0.9767,0.1888 -0.6006,0 -1.06,-0.1248 -1.3751,-0.3731 -0.3152,-0.2497 -0.5159,-0.6184 -0.6035,-1.1074z"/>
  <path id="5" class="fil2" d="M135.2059 27.676c0,-0.8548 0.2379,-1.4881 0.715,-1.8999 0.397,-0.342 0.8831,-0.5129 1.4554,-0.5129 0.6348,0 1.1552,0.2082 1.5595,0.6244 0.4029,0.4148 0.605,0.9901 0.605,1.723 0,0.5946 -0.0891,1.0614 -0.2676,1.4019 -0.1784,0.3404 -0.4386,0.605 -0.7804,0.7938 -0.3405,0.1888 -0.7136,0.2824 -1.1165,0.2824 -0.6481,0 -1.1714,-0.2066 -1.5713,-0.6214 -0.3999,-0.4148 -0.5991,-1.0124 -0.5991,-1.7914zm0.8028 0.0015c0,0.5916 0.1294,1.0346 0.388,1.3275 0.2602,0.2943 0.5857,0.4415 0.9796,0.4415 0.3895,0 0.7136,-0.1472 0.9737,-0.443 0.2586,-0.2958 0.388,-0.7463 0.388,-1.3513 0,-0.5709 -0.1308,-1.0035 -0.391,-1.2963 -0.2602,-0.2943 -0.5843,-0.4415 -0.9708,-0.4415 -0.3939,0 -0.7194,0.1457 -0.9796,0.4386 -0.2586,0.2929 -0.388,0.7344 -0.388,1.3246z"/>
  <path id="6" class="fil2" d="M140.4521 29.9906l0 -4.6293 0.7047 0 0 0.7091c0.1798,-0.3286 0.3464,-0.5456 0.4995,-0.6497 0.1532,-0.1056 0.3211,-0.1576 0.504,-0.1576 0.2646,0 0.5337,0.0833 0.8072,0.2483l-0.2794 0.724c-0.1904,-0.107 -0.3806,-0.1606 -0.5709,-0.1606 -0.171,0 -0.3241,0.052 -0.4593,0.1547 -0.1354,0.1025 -0.232,0.2453 -0.2899,0.4281 -0.0878,0.278 -0.1308,0.5827 -0.1308,0.9142l0 2.4187 -0.785 0z"/>
  <path class="fil2" d="M119.9636 58.355l0 -2.2715c-0.1219,0.171 -0.2928,0.3122 -0.5114,0.4252 -0.2185,0.1129 -0.452,0.1694 -0.6987,0.1694 -0.5486,0 -1.0198,-0.2185 -1.4167,-0.6571 -0.3955,-0.437 -0.5931,-1.0376 -0.5931,-1.7987 0,-0.4639 0.0803,-0.8801 0.2408,-1.2488 0.162,-0.3671 0.3954,-0.6466 0.7016,-0.8354 0.3063,-0.1903 0.6422,-0.2855 1.008,-0.2855 0.5723,0 1.0213,0.2394 1.3497,0.7195l0 -0.6214 0.7047 0 0 6.4043 -0.785 0zm-2.4171 -4.1031c0,0.5946 0.1248,1.0406 0.3746,1.3379 0.2497,0.2973 0.5486,0.4459 0.8979,0.4459 0.3345,0 0.6214,-0.1412 0.8637,-0.4236 0.2408,-0.284 0.3612,-0.7136 0.3612,-1.2904 0,-0.6155 -0.1278,-1.0777 -0.382,-1.3885 -0.2542,-0.3107 -0.5515,-0.4652 -0.8949,-0.4652 -0.3404,0 -0.6288,0.1441 -0.8652,0.4326 -0.2363,0.2883 -0.3552,0.7388 -0.3552,1.3513z"/>
  <path id="1" class="fil2" d="M125.0002 56.5799l0 -0.6882c-0.3598,0.5247 -0.8473,0.7863 -1.4643,0.7863 -0.2721,0 -0.5263,-0.052 -0.7626,-0.156 -0.2364,-0.1056 -0.4118,-0.2364 -0.5263,-0.394 -0.1144,-0.1591 -0.1947,-0.3523 -0.2408,-0.5812 -0.0312,-0.1547 -0.0475,-0.3984 -0.0475,-0.7314l0 -2.8647 0.7849 0 0 2.5614c0,0.4089 0.0164,0.6854 0.0476,0.8266 0.0491,0.2067 0.1531,0.3672 0.3136,0.4846 0.1591,0.1175 0.3553,0.177 0.5903,0.177 0.2348,0 0.4549,-0.0595 0.66,-0.1799 0.2051,-0.1204 0.3508,-0.2854 0.4371,-0.4921 0.0847,-0.2066 0.1278,-0.5084 0.1278,-0.9023l0 -2.4752 0.785 0 0 4.6293 -0.7047 0z"/>
  <path id="2" class="fil2" d="M126.643 54.2653c0,-0.8548 0.2379,-1.4881 0.715,-1.8999 0.397,-0.342 0.8831,-0.5129 1.4554,-0.5129 0.6348,0 1.1552,0.2082 1.5595,0.6244 0.4029,0.4148 0.605,0.9901 0.605,1.723 0,0.5946 -0.0891,1.0614 -0.2676,1.4019 -0.1784,0.3404 -0.4386,0.605 -0.7804,0.7938 -0.3405,0.1888 -0.7136,0.2824 -1.1165,0.2824 -0.6481,0 -1.1714,-0.2066 -1.5713,-0.6214 -0.3999,-0.4148 -0.5991,-1.0124 -0.5991,-1.7914zm0.8028 0.0015c0,0.5916 0.1294,1.0346 0.388,1.3275 0.2602,0.2943 0.5857,0.4415 0.9796,0.4415 0.3895,0 0.7136,-0.1472 0.9737,-0.443 0.2586,-0.2958 0.388,-0.7463 0.388,-1.3513 0,-0.5709 -0.1308,-1.0035 -0.391,-1.2963 -0.2602,-0.2943 -0.5843,-0.4415 -0.9708,-0.4415 -0.3939,0 -0.7194,0.1457 -0.9796,0.4386 -0.2586,0.2929 -0.388,0.7344 -0.388,1.3246z"/>
  <path id="3" class="fil2" d="M134.9219 54.8852l0.7671 0.107c-0.0847,0.5278 -0.2988,0.9396 -0.6452,1.2384 -0.3464,0.2988 -0.7731,0.4474 -1.2769,0.4474 -0.6318,0 -1.1403,-0.2066 -1.5238,-0.6199 -0.3851,-0.4133 -0.5768,-1.0049 -0.5768,-1.775 0,-0.4995 0.0832,-0.9351 0.2482,-1.3097 0.1651,-0.3731 0.4162,-0.6541 0.7553,-0.8398 0.3374,-0.1874 0.7046,-0.2811 1.103,-0.2811 0.501,0 0.9127,0.1264 1.2309,0.3806 0.3196,0.2542 0.5247,0.6155 0.614,1.0823l-0.7582 0.116c-0.0728,-0.3108 -0.2007,-0.5441 -0.3864,-0.7017 -0.1844,-0.1561 -0.4074,-0.2348 -0.669,-0.2348 -0.3955,0 -0.7166,0.1412 -0.9649,0.4236 -0.2467,0.2839 -0.3701,0.73 -0.3701,1.3425 0,0.6214 0.1189,1.0718 0.3567,1.3528 0.2394,0.281 0.5501,0.4221 0.9321,0.4221 0.3092,0 0.5664,-0.0937 0.7716,-0.2824 0.2066,-0.1873 0.3374,-0.4771 0.3924,-0.8682z"/>
  <path id="4" class="fil2" d="M136.358 51.0854l0 -0.892 0.785 0 0 0.892 -0.785 0zm0 5.4945l0 -4.6293 0.785 0 0 4.6293 -0.785 0z"/>
  <path id="5" class="fil2" d="M141.4972 55.0815l0.8117 0.107c-0.1264,0.4712 -0.3627,0.8385 -0.7076,1.0986 -0.3449,0.2602 -0.785,0.391 -1.3216,0.391 -0.6749,0 -1.21,-0.2081 -1.6055,-0.6243 -0.3955,-0.4148 -0.5931,-0.999 -0.5931,-1.7498 0,-0.776 0.1992,-1.3796 0.599,-1.8077 0.3999,-0.4297 0.9188,-0.6438 1.5565,-0.6438 0.6169,0 1.1209,0.2096 1.5119,0.6304 0.391,0.4207 0.5872,1.0123 0.5872,1.7749 0,0.0461 -0.0015,0.116 -0.0044,0.2082l-3.4475 0c0.0297,0.5069 0.1725,0.8964 0.4311,1.1655 0.2572,0.2691 0.5797,0.4043 0.9648,0.4043 0.287,0 0.5322,-0.0757 0.7344,-0.2274 0.2036,-0.1516 0.3642,-0.3939 0.4831,-0.7269zm-2.5688 -1.2577l2.5778 0c-0.0342,-0.3895 -0.1338,-0.6809 -0.2958,-0.8757 -0.2483,-0.3017 -0.5724,-0.4533 -0.9693,-0.4533 -0.3598,0 -0.6615,0.1204 -0.9069,0.3612 -0.2438,0.2408 -0.379,0.5634 -0.4058,0.9677z"/>
  <path id="6" class="fil2" d="M143.3004 56.5799l0 -4.6293 0.7047 0 0 0.6571c0.3389,-0.504 0.8295,-0.7553 1.4703,-0.7553 0.2795,0 0.5352,0.0506 0.7685,0.1502 0.2335,0.0996 0.4089,0.2319 0.5247,0.3939 0.116,0.162 0.1977,0.3553 0.2439,0.5783 0.0282,0.1457 0.0431,0.3999 0.0431,0.7626l0 2.8424 -0.785 0 0 -2.8126c0,-0.3196 -0.0297,-0.559 -0.0907,-0.7166 -0.0609,-0.1576 -0.1694,-0.2839 -0.3241,-0.379 -0.1545,-0.0937 -0.3374,-0.1413 -0.5456,-0.1413 -0.333,0 -0.6199,0.1056 -0.8622,0.3182 -0.2423,0.2111 -0.3627,0.614 -0.3627,1.2056l0 2.5258 -0.785 0z"/>
  <path id="7" class="fil2" d="M149.9649 55.8798l0.107 0.6927c-0.22,0.0461 -0.4177,0.07 -0.5902,0.07 -0.2839,0 -0.5039,-0.0447 -0.6615,-0.1353 -0.1561,-0.0907 -0.2661,-0.2082 -0.3301,-0.3553 -0.0639,-0.1472 -0.0951,-0.4564 -0.0951,-0.9276l0 -2.667 -0.5797 0 0 -0.6065 0.5797 0 0 -1.1447 0.785 -0.4712 0 1.616 0.7849 0 0 0.6065 -0.7849 0 0 2.7116c0,0.2245 0.0134,0.3687 0.0416,0.4326 0.0268,0.0639 0.0713,0.1145 0.1338,0.1532 0.0625,0.0372 0.1516,0.0565 0.2676,0.0565 0.0862,0 0.2007,-0.0104 0.3419,-0.0312z"/>
  <path id="8" class="fil2" d="M153.8969 55.0815l0.8117 0.107c-0.1264,0.4712 -0.3627,0.8385 -0.7076,1.0986 -0.3449,0.2602 -0.785,0.391 -1.3216,0.391 -0.6749,0 -1.21,-0.2081 -1.6055,-0.6243 -0.3955,-0.4148 -0.5931,-0.999 -0.5931,-1.7498 0,-0.776 0.1992,-1.3796 0.599,-1.8077 0.3999,-0.4297 0.9188,-0.6438 1.5565,-0.6438 0.6169,0 1.1209,0.2096 1.5119,0.6304 0.391,0.4207 0.5872,1.0123 0.5872,1.7749 0,0.0461 -0.0015,0.116 -0.0044,0.2082l-3.4475 0c0.0297,0.5069 0.1725,0.8964 0.4311,1.1655 0.2572,0.2691 0.5797,0.4043 0.9648,0.4043 0.287,0 0.5322,-0.0757 0.7344,-0.2274 0.2036,-0.1516 0.3642,-0.3939 0.4831,-0.7269zm-2.5688 -1.2577l2.5778 0c-0.0342,-0.3895 -0.1338,-0.6809 -0.2958,-0.8757 -0.2483,-0.3017 -0.5724,-0.4533 -0.9693,-0.4533 -0.3598,0 -0.6615,0.1204 -0.9069,0.3612 -0.2438,0.2408 -0.379,0.5634 -0.4058,0.9677z"/>
  <path class="fil4" d="M38.1002 10.1148c-0.1784,0.0535 -0.3813,0.0937 -0.6087,0.1204 -0.2274,0.0268 -0.4661,0.0401 -0.7159,0.0401 0.0357,-1.3647 0.0112,-2.8498 -0.0735,-4.4553 -0.0848,-1.6055 -0.2119,-3.0549 -0.3814,-4.3483 -0.4192,0.0446 -0.8541,0.0937 -1.3044,0.1472 -0.4505,0.0535 -0.9343,0.116 -1.4517,0.1873 -0.0535,-0.1695 -0.0937,-0.3501 -0.1204,-0.5419 -0.0268,-0.1917 -0.0401,-0.3857 -0.0401,-0.582 1.3647,-0.2408 2.5733,-0.4125 3.6258,-0.5152 1.0525,-0.1025 2.2299,-0.1582 3.5322,-0.1672 0.0268,0.0892 0.0491,0.1851 0.0669,0.2876 0.0178,0.1026 0.0312,0.2208 0.0401,0.3546 0,0.0713 -0.0022,0.1472 -0.0066,0.2274 -0.0045,0.0803 -0.0201,0.2051 -0.0469,0.3746 -0.5441,0.009 -1.0324,0.02 -1.465,0.0334 -0.4327,0.0134 -0.8452,0.0335 -1.2376,0.0603 0.0981,0.9723 0.1717,1.9222 0.2208,2.8498 0.049,0.9276 0.0735,1.9088 0.0735,2.9435 0,0.4639 -0.009,0.9455 -0.0268,1.445 -0.0178,0.4995 -0.0446,1.0124 -0.0803,1.5386z"/>
  <path id="1" class="fil4" d="M41.6056 6.3017c0.223,0.0803 0.4639,0.1404 0.7225,0.1806 0.2586,0.0401 0.5174,0.0603 0.776,0.0603 0.0803,0 0.1784,-0.0067 0.2943,-0.0201 0.116,-0.0134 0.2007,-0.0244 0.2542,-0.0334 0.0625,-0.2408 0.1092,-0.4661 0.1405,-0.6757 0.0312,-0.2095 0.0468,-0.4036 0.0468,-0.582 0,-0.3479 -0.0557,-0.5954 -0.1672,-0.7426 -0.1116,-0.1472 -0.2877,-0.2207 -0.5285,-0.2207 -0.3211,0 -0.6199,0.1873 -0.8964,0.5619 -0.2765,0.3746 -0.4906,0.8652 -0.6422,1.4717zm2.6625 1.9534c0.1873,0.0357 0.379,0.1048 0.5753,0.2073 0.1963,0.1026 0.3612,0.2252 0.495,0.368 -0.1606,0.4995 -0.5151,0.9477 -1.0636,1.3446 -0.5486,0.397 -1.1396,0.5954 -1.7728,0.5954 -0.776,0 -1.3825,-0.2765 -1.8196,-0.8295 -0.4371,-0.553 -0.6556,-1.3022 -0.6556,-2.2477 0,-1.1061 0.3189,-2.0984 0.9567,-2.977 0.6377,-0.8785 1.3937,-1.3178 2.2678,-1.3178 0.5797,0 1.0392,0.1739 1.3781,0.5218 0.3389,0.3479 0.5084,0.8117 0.5084,1.3915 0,0.3033 -0.029,0.6155 -0.0869,0.9366 -0.058,0.3211 -0.1361,0.6065 -0.2342,0.8563 -0.2051,0.0803 -0.4527,0.1404 -0.7425,0.1806 -0.2899,0.0401 -0.64,0.0603 -1.0503,0.0603 -0.2498,0 -0.5084,-0.0201 -0.776,-0.0603 -0.2676,-0.0401 -0.5308,-0.1003 -0.7894,-0.1806 -0.009,0.1784 -0.0156,0.3033 -0.02,0.3746 -0.0045,0.0713 -0.0067,0.1382 -0.0067,0.2007 0,0.66 0.1115,1.1908 0.3345,1.5921 0.223,0.4014 0.5218,0.6021 0.8964,0.6021 0.3033,0 0.6155,-0.1628 0.9366,-0.4884 0.3211,-0.3255 0.5441,-0.7024 0.669,-1.1305z"/>
  <path id="2" class="fil4" d="M47.8405 7.3052c0.0268,0.4906 0.0713,1.0101 0.1338,1.5586 0.0625,0.5486 0.1427,1.135 0.2408,1.7594 -0.1248,0.0446 -0.2564,0.0759 -0.3946,0.0937 -0.1383,0.0178 -0.2788,0.0223 -0.4215,0.0134 -0.0892,0 -0.1695,-0.0044 -0.2408,-0.0134 -0.0713,-0.009 -0.1472,-0.0268 -0.2274,-0.0535 -0.223,-1.1239 -0.3768,-2.3214 -0.4615,-3.5924 -0.0848,-1.271 -0.0914,-2.4952 -0.0201,-3.6726 0.107,-0.0357 0.2274,-0.0625 0.3612,-0.0803 0.1338,-0.0178 0.281,-0.0268 0.4415,-0.0268 0.116,0 0.2364,0.009 0.3612,0.0268 0.1248,0.0178 0.2586,0.0491 0.4014,0.0937 -0.0357,0.2408 -0.0691,0.4883 -0.1003,0.7425 -0.0313,0.2542 -0.0558,0.5285 -0.0736,0.8229 0.2051,-0.6333 0.4772,-1.1372 0.8161,-1.5119 0.3389,-0.3746 0.6868,-0.5619 1.0436,-0.5619 0.3924,0 0.6891,0.1494 0.8898,0.4482 0.2007,0.2989 0.301,0.7426 0.301,1.3313 0,0.0981 -0.0044,0.2051 -0.0134,0.3211 -0.009,0.116 -0.0178,0.2319 -0.0268,0.3479 -0.1338,0.0535 -0.301,0.0892 -0.5017,0.107 -0.2007,0.0178 -0.4393,0.0223 -0.7159,0.0134 0.0178,-0.1248 0.0312,-0.2408 0.0401,-0.3479 0.009,-0.107 0.0134,-0.2141 0.0134,-0.3211 0,-0.2676 -0.0334,-0.4705 -0.1003,-0.6088 -0.0669,-0.1382 -0.1673,-0.2073 -0.3011,-0.2073 -0.2854,0 -0.5597,0.301 -0.8228,0.9031 -0.2632,0.6021 -0.4706,1.4072 -0.6222,2.415z"/>
  <path id="3" class="fil4" d="M60.2967 5.5391c0,0.8117 -0.0781,1.7371 -0.2341,2.7762 -0.1561,1.0392 -0.3368,1.92 -0.5419,2.6425 -0.2676,-0.009 -0.5174,-0.0312 -0.7492,-0.0669 -0.2319,-0.0357 -0.4415,-0.0803 -0.6288,-0.1338 0.2498,-0.999 0.4371,-1.9378 0.5619,-2.8164 0.1248,-0.8785 0.1873,-1.6835 0.1873,-2.4149 0,-0.4906 -0.0579,-0.8451 -0.1739,-1.0637 -0.116,-0.2185 -0.3033,-0.3277 -0.5619,-0.3277 -0.2498,0 -0.4995,0.1382 -0.7492,0.4148 -0.2498,0.2765 -0.4727,0.6645 -0.669,1.164 0.009,0.0535 0.0134,0.116 0.0134,0.1873 0,0.0713 0,0.1829 0,0.3345 0,0.6422 -0.0535,1.3737 -0.1606,2.1942 -0.107,0.8206 -0.2274,1.4941 -0.3612,2.0203 -0.1695,0 -0.3635,-0.0156 -0.582,-0.0469 -0.2186,-0.0312 -0.4616,-0.078 -0.7292,-0.1404 0.1695,-0.9188 0.2899,-1.6902 0.3612,-2.3146 0.0713,-0.6244 0.107,-1.1818 0.107,-1.6724 0,-0.4906 -0.0579,-0.8451 -0.1739,-1.0637 -0.116,-0.2185 -0.3033,-0.3277 -0.5619,-0.3277 -0.2765,0 -0.5486,0.1316 -0.8161,0.3946 -0.2676,0.2632 -0.4906,0.6266 -0.669,1.0905 -0.009,0.669 -0.0156,1.1484 -0.02,1.4382 -0.0045,0.2899 -0.0067,0.5463 -0.0067,0.7694 0,0.4103 0.0067,0.8184 0.0201,1.2242 0.0134,0.4059 0.029,0.7114 0.0468,0.9165 -0.1427,0.0446 -0.3277,0.0847 -0.5552,0.1204 -0.2274,0.0357 -0.4393,0.0535 -0.6356,0.0535 -0.0892,-1.1239 -0.1672,-2.3971 -0.2341,-3.8199 -0.0669,-1.4226 -0.1004,-2.5978 -0.1004,-3.5254 0.1248,-0.0625 0.2788,-0.1115 0.4616,-0.1472 0.1828,-0.0357 0.3679,-0.0535 0.5552,-0.0535 0.1248,0 0.2364,0.0044 0.3345,0.0134 0.0981,0.009 0.2007,0.0268 0.3077,0.0535 -0.0268,0.2051 -0.0491,0.4437 -0.0669,0.7157 -0.0178,0.2721 -0.0357,0.5731 -0.0535,0.9032 0.2676,-0.4281 0.5709,-0.7515 0.9098,-0.9701 0.3389,-0.2185 0.7002,-0.3277 1.0837,-0.3277 0.3211,0 0.5887,0.0735 0.8028,0.2207 0.2141,0.1472 0.379,0.368 0.495,0.6623 0.3033,-0.5441 0.64,-0.9522 1.0102,-1.2243 0.3701,-0.272 0.7737,-0.408 1.2108,-0.408 0.5352,0 0.9299,0.2073 1.1841,0.6221 0.2542,0.4148 0.3813,1.0593 0.3813,1.9334z"/>
  <path id="4" class="fil4" d="M61.4339 7.3854c0,-1.1774 0.2899,-2.1407 0.8697,-2.89 0.5797,-0.7492 1.3246,-1.1239 2.2344,-1.1239 0.7314,0 1.3068,0.2564 1.7259,0.7693 0.4192,0.5129 0.6288,1.2153 0.6288,2.1073 0,1.3022 -0.2742,2.3748 -0.8228,3.2177 -0.5486,0.8429 -1.2822,1.2644 -2.201,1.2644 -0.7492,0 -1.3424,-0.3077 -1.7795,-0.9232 -0.4371,-0.6155 -0.6556,-1.4226 -0.6556,-2.4217zm4.0138 -0.5352c0,-0.8652 -0.1003,-1.5052 -0.301,-1.92 -0.2007,-0.4148 -0.5062,-0.6221 -0.9165,-0.6221 -0.3836,0 -0.7135,0.2788 -0.9901,0.8362 -0.2765,0.5575 -0.4148,1.2421 -0.4148,2.0538 0,0.7314 0.1182,1.3491 0.3546,1.853 0.2363,0.504 0.5552,0.756 0.9566,0.756 0.3568,0 0.6645,-0.2921 0.9232,-0.8764 0.2586,-0.5842 0.388,-1.2777 0.388,-2.0804z"/>
  <path id="5" class="fil4" d="M70.6523 6.6094c0.6779,0.4727 1.1239,0.8763 1.3379,1.2108 0.2141,0.3345 0.3211,0.7069 0.3211,1.1172 0,0.6333 -0.223,1.1596 -0.669,1.5788 -0.4459,0.4192 -1.0079,0.6288 -1.6858,0.6288 -0.669,0 -1.2153,-0.2297 -1.6389,-0.6891 -0.4237,-0.4593 -0.6356,-1.0458 -0.6356,-1.7593 0.1427,-0.0625 0.3122,-0.1092 0.5084,-0.1405 0.1963,-0.0312 0.379,-0.0424 0.5486,-0.0334 -0.0178,0.553 0.0825,0.9879 0.3011,1.3044 0.2185,0.3167 0.524,0.475 0.9164,0.475 0.3033,0 0.5419,-0.0959 0.7159,-0.2877 0.1739,-0.1917 0.2608,-0.4526 0.2608,-0.7826 0,-0.2765 -0.0825,-0.5352 -0.2475,-0.776 -0.1651,-0.2408 -0.5285,-0.5575 -1.0905,-0.9499 -0.6779,-0.4817 -1.1239,-0.8964 -1.3379,-1.2443 -0.2141,-0.3479 -0.3211,-0.7359 -0.3211,-1.164 0,-0.5976 0.1941,-1.0793 0.5821,-1.445 0.388,-0.3657 0.9075,-0.5486 1.5586,-0.5486 0.6244,0 1.1194,0.1672 1.4851,0.5017 0.3657,0.3345 0.611,0.8496 0.7359,1.5454 -0.1516,0.0892 -0.3189,0.1561 -0.5017,0.2007 -0.1829,0.0446 -0.3992,0.0803 -0.649,0.107 -0.0803,-0.5084 -0.2051,-0.8764 -0.3746,-1.1039 -0.1695,-0.2274 -0.4014,-0.3411 -0.6957,-0.3411 -0.2319,0 -0.4192,0.0781 -0.5619,0.2341 -0.1427,0.1561 -0.2141,0.368 -0.2141,0.6356 0,0.2765 0.0847,0.5352 0.2542,0.776 0.1695,0.2408 0.5352,0.5575 1.0971,0.9499z"/>
  <path id="6" class="fil4" d="M81.0615 11.0113c-0.1516,0.0446 -0.3301,0.0803 -0.5352,0.107 -0.2051,0.0268 -0.3836,0.0401 -0.5352,0.0401 -0.0268,-0.2676 -0.0535,-0.5418 -0.0803,-0.8229 -0.0268,-0.281 -0.0491,-0.5596 -0.0669,-0.8362 -0.1784,0.5084 -0.408,0.8853 -0.689,1.1306 -0.281,0.2453 -0.6311,0.3679 -1.0503,0.3679 -0.7135,0 -1.2733,-0.3144 -1.6791,-0.9433 -0.4059,-0.6288 -0.6088,-1.4694 -0.6088,-2.522 0,-1.2041 0.2788,-2.1653 0.8363,-2.8833 0.5574,-0.718 1.3089,-1.077 2.2544,-1.077 0.116,0 0.2342,0.0066 0.3546,0.02 0.1204,0.0134 0.2341,0.0335 0.3411,0.0603 -0.009,-0.776 -0.0156,-1.3335 -0.02,-1.6724 -0.0045,-0.3389 -0.0067,-0.6422 -0.0067,-0.9098 0.116,-0.0535 0.2654,-0.1004 0.4483,-0.1405 0.1828,-0.0401 0.3635,-0.0602 0.5418,-0.0602 0.0981,0 0.1985,0.0066 0.3011,0.02 0.1025,0.0134 0.2118,0.0335 0.3277,0.0603 -0.0625,0.5976 -0.107,1.4829 -0.1338,2.6558 -0.0268,1.173 -0.0401,2.9814 -0.0401,5.4254 0,0.3657 0.0022,0.6913 0.0067,0.9767 0.0044,0.2854 0.0156,0.6199 0.0334,1.0035zm-3.8533 -3.666c0,0.8295 0.107,1.4739 0.3211,1.9333 0.2141,0.4594 0.5084,0.6891 0.883,0.6891 0.3389,0 0.6222,-0.2029 0.8496,-0.6088 0.2274,-0.4058 0.3857,-0.9923 0.4749,-1.7593 -0.0268,-0.4639 -0.0491,-0.9544 -0.0669,-1.4717 -0.0178,-0.5174 -0.0357,-1.048 -0.0535,-1.5921 -0.0803,-0.0268 -0.1695,-0.0446 -0.2676,-0.0535 -0.0981,-0.009 -0.2007,-0.0134 -0.3077,-0.0134 -0.553,0 -0.9967,0.2542 -1.3312,0.7626 -0.3345,0.5084 -0.5018,1.2131 -0.5018,2.1139z"/>
  <path id="7" class="fil4" d="M87.4435 5.9806c0,0.5976 -0.0803,1.3892 -0.2408,2.3748 -0.1606,0.9857 -0.3523,1.8888 -0.5753,2.7094 -0.1784,0 -0.3657,-0.0156 -0.5619,-0.0468 -0.1963,-0.0313 -0.388,-0.0736 -0.5753,-0.1272 0.0268,-0.1516 0.0535,-0.2899 0.0803,-0.4148 0.0268,-0.1248 0.0535,-0.2364 0.0803,-0.3345 -0.1963,0.1248 -0.4103,0.2185 -0.6422,0.281 -0.2319,0.0625 -0.4772,0.0937 -0.7359,0.0937 -0.6422,0 -1.1596,-0.1673 -1.552,-0.5018 -0.3924,-0.3345 -0.5887,-0.7826 -0.5887,-1.3446 0,-0.5976 0.2498,-1.048 0.7492,-1.3513 0.4995,-0.3033 1.2353,-0.4549 2.2076,-0.4549 0.1606,0 0.3099,0.0022 0.4483,0.0066 0.1382,0.0045 0.3099,0.0112 0.5151,0.0201 0,-0.0981 0,-0.1941 0,-0.2877 0,-0.0937 0,-0.185 0,-0.2742 0,-0.7492 -0.0803,-1.2888 -0.2408,-1.6189 -0.1606,-0.3301 -0.4192,-0.495 -0.776,-0.495 -0.3657,0 -0.6712,0.1695 -0.9164,0.5084 -0.2454,0.3389 -0.3769,0.776 -0.3947,1.3112 -0.3211,-0.0268 -0.5843,-0.0981 -0.7894,-0.2141 -0.2051,-0.116 -0.3568,-0.272 -0.4549,-0.4683 0.116,-0.5619 0.4304,-1.0392 0.9433,-1.4316 0.5128,-0.3924 1.0993,-0.5887 1.7593,-0.5887 0.7492,0 1.3134,0.223 1.6925,0.669 0.379,0.4459 0.5686,1.1061 0.5686,1.9802zm-3.88 2.7562c0,0.2943 0.0937,0.5308 0.281,0.7091 0.1873,0.1784 0.4415,0.2676 0.7626,0.2676 0.223,0 0.4349,-0.0335 0.6356,-0.1004 0.2007,-0.0669 0.3857,-0.1628 0.5552,-0.2876 0.0625,-0.3301 0.1115,-0.6333 0.1472,-0.9098 0.0357,-0.2765 0.0579,-0.5575 0.0669,-0.8429 -0.8206,-0.0268 -1.4338,0.0557 -1.8396,0.2475 -0.4059,0.1918 -0.6088,0.4974 -0.6088,0.9165z"/>
  <path id="8" class="fil4" d="M98.147 4.6694c0,1.329 -0.4705,2.5533 -1.4115,3.6726 -0.9411,1.1194 -2.1742,1.9156 -3.6995,2.3883 -0.1338,0 -0.3411,-0.0134 -0.6221,-0.0401 -0.281,-0.0268 -0.484,-0.0535 -0.6088,-0.0803 -0.0981,-1.436 -0.1672,-2.6826 -0.2073,-3.7396 -0.0401,-1.057 -0.0603,-2.0804 -0.0603,-3.0705 0,-0.3568 0.0044,-0.7292 0.0134,-1.1172 0.009,-0.388 0.0178,-0.7425 0.0268,-1.0636 0.4459,-0.2141 0.8853,-0.3702 1.3179,-0.4683 0.4326,-0.0981 0.8897,-0.1472 1.3713,-0.1472 1.2666,0 2.2299,0.3144 2.89,0.9432 0.66,0.6288 0.9901,1.5364 0.9901,2.7228zm-5.0307 -2.5421c-0.0625,0.883 -0.1048,1.7081 -0.1271,2.4752 -0.0223,0.7671 -0.0335,1.7839 -0.0335,3.0505 0,0.2765 0.0022,0.5575 0.0067,0.8429 0.0044,0.2854 0.0111,0.6779 0.02,1.1774 1.2041,-0.4727 2.1184,-1.135 2.7428,-1.9869 0.6244,-0.8518 0.9366,-1.862 0.9366,-3.0304 0,-0.8652 -0.223,-1.5297 -0.669,-1.9935 -0.4459,-0.4639 -1.0882,-0.6957 -1.9266,-0.6957 -0.1427,0 -0.2899,0.0134 -0.4415,0.0401 -0.1516,0.0268 -0.3211,0.0669 -0.5084,0.1204z"/>
  <path id="9" class="fil4" d="M100.7828 0.6422c0.1516,0 0.2899,0.0134 0.4148,0.0401 0.1248,0.0268 0.2408,0.0713 0.3479,0.1338 -0.0892,0.2141 -0.1806,0.4661 -0.2742,0.7559 -0.0937,0.2899 -0.1629,0.5553 -0.2074,0.7961 -0.1338,0.0268 -0.2988,0.0446 -0.495,0.0535 -0.1963,0.009 -0.4281,0.009 -0.6957,0 -0.0268,-0.107 -0.0446,-0.2096 -0.0535,-0.3077 -0.009,-0.0981 -0.0134,-0.1963 -0.0134,-0.2943 0,-0.1784 0.0156,-0.3635 0.0469,-0.5553 0.0312,-0.1917 0.0735,-0.3501 0.1271,-0.4749 0.116,-0.0625 0.2364,-0.1048 0.3612,-0.1272 0.1248,-0.0222 0.272,-0.029 0.4415,-0.02zm-1.2309 3.2646c0.1338,-0.0713 0.2854,-0.1272 0.4549,-0.1673 0.1695,-0.0401 0.3434,-0.0602 0.5218,-0.0602 0.0892,0 0.1784,0.0044 0.2676,0.0134 0.0892,0.009 0.1739,0.0223 0.2542,0.0401 -0.1873,0.8563 -0.3255,1.9155 -0.4148,3.1776 -0.0892,1.2622 -0.1115,2.4864 -0.0669,3.6727 -0.0981,0.0446 -0.2185,0.0803 -0.3612,0.107 -0.1427,0.0268 -0.2854,0.0401 -0.4281,0.0401 -0.0713,0 -0.136,-0.0022 -0.1939,-0.0066 -0.058,-0.0045 -0.1094,-0.0157 -0.1539,-0.0335 -0.1427,-1.1417 -0.2029,-2.3146 -0.1806,-3.5188 0.0222,-1.2041 0.1226,-2.2923 0.301,-3.2646z"/>
  <path id="10" class="fil4" d="M107.7133 3.7329c-0.3122,1.2399 -0.6578,2.357 -1.0369,3.3515 -0.3792,0.9946 -0.8808,2.0895 -1.5052,3.2847 -0.107,0.0446 -0.252,0.0759 -0.4348,0.0937 -0.1829,0.0178 -0.4259,0.0268 -0.7292,0.0268 -0.2498,-1.3112 -0.553,-2.5599 -0.9098,-3.7462 -0.3568,-1.1863 -0.7671,-2.328 -1.2309,-3.4251 0.2051,-0.107 0.4371,-0.1941 0.6957,-0.261 0.2586,-0.0669 0.5262,-0.1047 0.8028,-0.1137 0.2854,0.776 0.5463,1.6323 0.7827,2.5688 0.2363,0.9366 0.4749,2.0649 0.7157,3.385 0.3924,-0.9366 0.7247,-1.8821 0.9968,-2.8364 0.272,-0.9544 0.4615,-1.8508 0.5686,-2.6893 0.2141,0.0268 0.4304,0.0713 0.649,0.1338 0.2185,0.0625 0.4304,0.1382 0.6355,0.2274z"/>
  <path id="11" class="fil4" d="M109.9878 0.6422c0.1516,0 0.2899,0.0134 0.4148,0.0401 0.1248,0.0268 0.2408,0.0713 0.3479,0.1338 -0.0892,0.2141 -0.1806,0.4661 -0.2742,0.7559 -0.0937,0.2899 -0.1629,0.5553 -0.2074,0.7961 -0.1338,0.0268 -0.2988,0.0446 -0.495,0.0535 -0.1963,0.009 -0.4281,0.009 -0.6957,0 -0.0268,-0.107 -0.0446,-0.2096 -0.0535,-0.3077 -0.009,-0.0981 -0.0134,-0.1963 -0.0134,-0.2943 0,-0.1784 0.0156,-0.3635 0.0469,-0.5553 0.0312,-0.1917 0.0735,-0.3501 0.1271,-0.4749 0.116,-0.0625 0.2364,-0.1048 0.3612,-0.1272 0.1248,-0.0222 0.272,-0.029 0.4415,-0.02zm-1.2309 3.2646c0.1338,-0.0713 0.2854,-0.1272 0.4549,-0.1673 0.1695,-0.0401 0.3434,-0.0602 0.5218,-0.0602 0.0892,0 0.1784,0.0044 0.2676,0.0134 0.0892,0.009 0.1739,0.0223 0.2542,0.0401 -0.1873,0.8563 -0.3255,1.9155 -0.4148,3.1776 -0.0892,1.2622 -0.1115,2.4864 -0.0669,3.6727 -0.0981,0.0446 -0.2185,0.0803 -0.3612,0.107 -0.1427,0.0268 -0.2854,0.0401 -0.4281,0.0401 -0.0713,0 -0.136,-0.0022 -0.1939,-0.0066 -0.058,-0.0045 -0.1094,-0.0157 -0.1539,-0.0335 -0.1427,-1.1417 -0.2029,-2.3146 -0.1806,-3.5188 0.0222,-1.2041 0.1226,-2.2923 0.301,-3.2646z"/>
  <path id="12" class="fil4" d="M113.8411 6.6094c0.6779,0.4727 1.1239,0.8763 1.3379,1.2108 0.2141,0.3345 0.3211,0.7069 0.3211,1.1172 0,0.6333 -0.223,1.1596 -0.669,1.5788 -0.4459,0.4192 -1.0079,0.6288 -1.6858,0.6288 -0.669,0 -1.2153,-0.2297 -1.6389,-0.6891 -0.4237,-0.4593 -0.6356,-1.0458 -0.6356,-1.7593 0.1427,-0.0625 0.3122,-0.1092 0.5084,-0.1405 0.1963,-0.0312 0.379,-0.0424 0.5486,-0.0334 -0.0178,0.553 0.0825,0.9879 0.3011,1.3044 0.2185,0.3167 0.524,0.475 0.9164,0.475 0.3033,0 0.5419,-0.0959 0.7159,-0.2877 0.1739,-0.1917 0.2608,-0.4526 0.2608,-0.7826 0,-0.2765 -0.0825,-0.5352 -0.2475,-0.776 -0.1651,-0.2408 -0.5285,-0.5575 -1.0905,-0.9499 -0.6779,-0.4817 -1.1239,-0.8964 -1.3379,-1.2443 -0.2141,-0.3479 -0.3211,-0.7359 -0.3211,-1.164 0,-0.5976 0.1941,-1.0793 0.5821,-1.445 0.388,-0.3657 0.9075,-0.5486 1.5586,-0.5486 0.6244,0 1.1194,0.1672 1.4851,0.5017 0.3657,0.3345 0.611,0.8496 0.7359,1.5454 -0.1516,0.0892 -0.3189,0.1561 -0.5017,0.2007 -0.1829,0.0446 -0.3992,0.0803 -0.649,0.107 -0.0803,-0.5084 -0.2051,-0.8764 -0.3746,-1.1039 -0.1695,-0.2274 -0.4014,-0.3411 -0.6957,-0.3411 -0.2319,0 -0.4192,0.0781 -0.5619,0.2341 -0.1427,0.1561 -0.2141,0.368 -0.2141,0.6356 0,0.2765 0.0847,0.5352 0.2542,0.776 0.1695,0.2408 0.5352,0.5575 1.0971,0.9499z"/>
  <path id="13" class="fil4" d="M121.6413 5.9806c0,0.5976 -0.0803,1.3892 -0.2408,2.3748 -0.1606,0.9857 -0.3523,1.8888 -0.5753,2.7094 -0.1784,0 -0.3657,-0.0156 -0.5619,-0.0468 -0.1963,-0.0313 -0.388,-0.0736 -0.5753,-0.1272 0.0268,-0.1516 0.0535,-0.2899 0.0803,-0.4148 0.0268,-0.1248 0.0535,-0.2364 0.0803,-0.3345 -0.1963,0.1248 -0.4103,0.2185 -0.6422,0.281 -0.2319,0.0625 -0.4772,0.0937 -0.7359,0.0937 -0.6422,0 -1.1596,-0.1673 -1.552,-0.5018 -0.3924,-0.3345 -0.5887,-0.7826 -0.5887,-1.3446 0,-0.5976 0.2498,-1.048 0.7492,-1.3513 0.4995,-0.3033 1.2353,-0.4549 2.2076,-0.4549 0.1606,0 0.3099,0.0022 0.4483,0.0066 0.1382,0.0045 0.3099,0.0112 0.5151,0.0201 0,-0.0981 0,-0.1941 0,-0.2877 0,-0.0937 0,-0.185 0,-0.2742 0,-0.7492 -0.0803,-1.2888 -0.2408,-1.6189 -0.1606,-0.3301 -0.4192,-0.495 -0.776,-0.495 -0.3657,0 -0.6712,0.1695 -0.9164,0.5084 -0.2454,0.3389 -0.3769,0.776 -0.3947,1.3112 -0.3211,-0.0268 -0.5843,-0.0981 -0.7894,-0.2141 -0.2051,-0.116 -0.3568,-0.272 -0.4549,-0.4683 0.116,-0.5619 0.4304,-1.0392 0.9433,-1.4316 0.5128,-0.3924 1.0993,-0.5887 1.7593,-0.5887 0.7492,0 1.3134,0.223 1.6925,0.669 0.379,0.4459 0.5686,1.1061 0.5686,1.9802zm-3.88 2.7562c0,0.2943 0.0937,0.5308 0.281,0.7091 0.1873,0.1784 0.4415,0.2676 0.7626,0.2676 0.223,0 0.4349,-0.0335 0.6356,-0.1004 0.2007,-0.0669 0.3857,-0.1628 0.5552,-0.2876 0.0625,-0.3301 0.1115,-0.6333 0.1472,-0.9098 0.0357,-0.2765 0.0579,-0.5575 0.0669,-0.8429 -0.8206,-0.0268 -1.4338,0.0557 -1.8396,0.2475 -0.4059,0.1918 -0.6088,0.4974 -0.6088,0.9165zm1.6858 -7.1847c0.1516,0.0803 0.2654,0.1338 0.3412,0.1606 0.0757,0.0268 0.1494,0.0401 0.2207,0.0401 0.1338,0 0.2274,-0.0401 0.281,-0.1204 0.0535,-0.0803 0.0759,-0.2141 0.0669,-0.4014 0.1248,-0.009 0.2408,-0.0022 0.3479,0.02 0.107,0.0223 0.2141,0.0558 0.3211,0.1004 0.0357,0.4014 -0.0223,0.7113 -0.1739,0.9298 -0.1516,0.2186 -0.3836,0.3278 -0.6957,0.3278 -0.116,0 -0.2319,-0.0178 -0.3479,-0.0535 -0.116,-0.0357 -0.2676,-0.107 -0.4549,-0.2141 -0.1427,-0.0803 -0.2453,-0.1316 -0.3077,-0.1539 -0.0625,-0.0222 -0.1248,-0.0334 -0.1873,-0.0334 -0.1248,0 -0.2141,0.0424 -0.2676,0.1271 -0.0535,0.0848 -0.0759,0.2074 -0.0669,0.368 -0.107,0.009 -0.2207,0.0044 -0.3411,-0.0134 -0.1204,-0.0178 -0.2342,-0.0446 -0.3412,-0.0803 -0.0357,-0.3836 0.0245,-0.6891 0.1807,-0.9165 0.156,-0.2274 0.3857,-0.3411 0.689,-0.3411 0.107,0 0.2119,0.0156 0.3145,0.0468 0.1025,0.0313 0.243,0.1004 0.4214,0.2074z"/>
  <path id="14" class="fil4" d="M122.725 7.3854c0,-1.1774 0.2899,-2.1407 0.8697,-2.89 0.5797,-0.7492 1.3246,-1.1239 2.2344,-1.1239 0.7314,0 1.3068,0.2564 1.7259,0.7693 0.4192,0.5129 0.6288,1.2153 0.6288,2.1073 0,1.3022 -0.2742,2.3748 -0.8228,3.2177 -0.5486,0.8429 -1.2822,1.2644 -2.201,1.2644 -0.7492,0 -1.3424,-0.3077 -1.7795,-0.9232 -0.4371,-0.6155 -0.6556,-1.4226 -0.6556,-2.4217zm4.0138 -0.5352c0,-0.8652 -0.1003,-1.5052 -0.301,-1.92 -0.2007,-0.4148 -0.5062,-0.6221 -0.9165,-0.6221 -0.3836,0 -0.7135,0.2788 -0.9901,0.8362 -0.2765,0.5575 -0.4148,1.2421 -0.4148,2.0538 0,0.7314 0.1182,1.3491 0.3546,1.853 0.2363,0.504 0.5552,0.756 0.9566,0.756 0.3568,0 0.6645,-0.2921 0.9232,-0.8764 0.2586,-0.5842 0.388,-1.2777 0.388,-2.0804z"/>
  <path class="fil3 str1" d="M53.9143 54.299l-10.4437 0 0 0.9386 -2.9357 -1.6724 2.9357 -1.6724 0 0.9386 10.4437 0 0 1.4677zm-5.2219 0m-5.2219 0.4693m-1.4678 -0.3669m0 -1.6724m1.4678 -0.3669m5.2219 0.4692m5.2219 0.7339"/>
 </g>
</svg>
