<?xml version="1.0" encoding="iso-8859-1"?>
<!-- Uploaded to: SVG Repo, www.svgrepo.com, Generator: SVG Repo Mixer Tools -->
<svg version="1.1" id="Layer_1" xmlns="http://www.w3.org/2000/svg" xmlns:xlink="http://www.w3.org/1999/xlink" 
	 viewBox="0 0 347.479 347.479" xml:space="preserve">
<g>
	<path style="fill:#E0B03B;" d="M292.251,79.766H103.644v-8.544c0-5.974-4.888-10.862-10.862-10.862H30.414
		c-5.975,0-10.862,4.888-10.862,10.862v8.544h-3.258C7.332,79.766,0,87.098,0,96.059v174.766c0,8.961,7.332,16.293,16.293,16.293
		h275.958c8.961,0,16.293-7.332,16.293-16.293V96.059C308.545,87.098,301.213,79.766,292.251,79.766z"/>
	<rect x="23.243" y="95.385" style="fill:#FFFFFF;" width="262.059" height="176.113"/>
	<path style="fill:#FFC843;" d="M312.426,271.293c-2.135,8.704-11.213,15.825-20.175,15.825H16.293
		c-8.961,0-14.547-7.121-12.412-15.825l34.598-141.05c2.135-8.704,11.213-15.825,20.175-15.825h275.958
		c8.961,0,14.547,7.121,12.412,15.825L312.426,271.293z"/>
</g>
</svg>