<?xml version="1.0" encoding="UTF-8"?>
<!DOCTYPE svg PUBLIC "-//W3C//DTD SVG 1.0//EN" "http://www.w3.org/TR/2001/REC-SVG-20010904/DTD/svg10.dtd">
<!-- Creator: CorelDRAW 2018 (64 Bit) -->
<svg xmlns="http://www.w3.org/2000/svg" xml:space="preserve" width="12.323mm" height="10.1322mm" version="1.0" style="shape-rendering:geometricPrecision; text-rendering:geometricPrecision; image-rendering:optimizeQuality; fill-rule:evenodd; clip-rule:evenodd"
viewBox="0 0 12.6003 10.3602"
 xmlns:xlink="http://www.w3.org/1999/xlink">
 <defs>
  <style type="text/css">
   <![CDATA[
    .fil0 {fill:#F2D36F}
   ]]>
  </style>
 </defs>
 <g id="Camada_x0020_1">
  <metadata id="CorelCorpID_0Corel-Layer"/>
  <path class="fil0" d="M1.6165 10.3602c-0.2975,0 -0.5591,-0.1127 -0.7846,-0.3381 -0.2255,-0.2255 -0.487,-0.3381 -0.3381,-0.7846l0 -7.0475c0,-0.2975 0.1127,-0.5614 0.3381,-0.7913 0.2255,-0.23 0.3381,-0.4938 0.7846,-0.345l3.6117 0 0.9468 0.9468 4.5315 0.0001c0.3066,0 0.5704,0.1127 0.7913,0.3381 -7.6652,-1.8216 -11.4978,-2.5791 -11.4978,-2.2725l1.6165 0 0 6.1007 1.3662 -5.289 9.6177 0 -1.4068 5.3702c-0.1173,0.3877 -0.2864,0.6583 -0.5073,0.8116 -0.221,2.2003 -0.5389,3.3005 -0.9537,3.3005l-8.1161 0z"/>
 </g>
</svg>
