<?xml version="1.0" encoding="UTF-8"?>
<!DOCTYPE svg PUBLIC "-//W3C//DTD SVG 1.0//EN" "http://www.w3.org/TR/2001/REC-SVG-20010904/DTD/svg10.dtd">
<!-- Creator: CorelDRAW 2018 (64 Bit) -->
<svg xmlns="http://www.w3.org/2000/svg" xml:space="preserve" width="25.831mm" height="25.4002mm" version="1.0" style="shape-rendering:geometricPrecision; text-rendering:geometricPrecision; image-rendering:optimizeQuality; fill-rule:evenodd; clip-rule:evenodd"
viewBox="0 0 2573.32 2530.4"
 xmlns:xlink="http://www.w3.org/1999/xlink">
 <defs>
  <style type="text/css">
   <![CDATA[
    .fil0 {fill:#7A75B5}
   ]]>
  </style>
 </defs>
 <g id="Camada_x0020_1">
  <metadata id="CorelCorpID_0Corel-Layer"/>
  <path class="fil0" d="M1287.7 0c-712.06,0 -1287.7,579.88 -1287.7,1297.27 0,573.45 368.83,1058.85 880.49,1230.66 63.97,12.91 87.41,-27.91 87.41,-62.25 0,-30.08 -2.11,-133.16 -2.11,-240.58 -358.21,77.34 -432.8,-154.64 -432.8,-154.64 -57.57,-150.35 -142.86,-188.99 -142.86,-188.99 -117.24,-79.47 8.54,-79.47 8.54,-79.47 130.06,8.6 198.3,133.16 198.3,133.16 115.1,197.58 300.59,141.75 375.2,107.38 10.65,-83.76 44.78,-141.75 81.02,-173.97 -285.69,-30.08 -586.28,-141.75 -586.28,-640.06 0,-141.75 51.14,-257.73 132.16,-347.93 -12.78,-32.21 -57.57,-165.4 12.81,-343.65 0,0 108.73,-34.37 353.88,133.16 104.93,-28.3 213.31,-42.97 321.98,-42.97 108.73,0 219.57,15.05 321.92,42.97 245.19,-167.53 353.91,-133.16 353.91,-133.16 70.37,178.26 25.56,311.45 12.78,343.65 83.16,90.2 132.19,206.18 132.19,347.93 0,498.3 -300.59,607.82 -588.42,640.06 46.92,40.8 87.41,118.11 87.41,240.55 0,173.97 -2.11,313.58 -2.11,356.52 0,34.37 23.46,75.2 87.41,62.31 511.66,-171.86 880.49,-657.24 880.49,-1230.69 2.07,-717.39 -575.67,-1297.27 -1285.6,-1297.27z"/>
 </g>
</svg>
