<?xml version="1.0" encoding="UTF-8"?>
<!DOCTYPE svg PUBLIC "-//W3C//DTD SVG 1.1//EN" "http://www.w3.org/Graphics/SVG/1.1/DTD/svg11.dtd">
<!-- Creator: CorelDRAW 2018 (64 Bit) -->
<svg xmlns="http://www.w3.org/2000/svg" xml:space="preserve" width="21cm" height="29.7cm" version="1.1" style="shape-rendering:geometricPrecision; text-rendering:geometricPrecision; image-rendering:optimizeQuality; fill-rule:evenodd; clip-rule:evenodd"
viewBox="0 0 21 29.7"
 xmlns:xlink="http://www.w3.org/1999/xlink">
 <defs>
  <style type="text/css">
   <![CDATA[
    .fil0 {fill:#9D98CA}
   ]]>
  </style>
 </defs>
 <g id="Camada_x0020_1">
  <metadata id="CorelCorpID_0Corel-Layer"/>
  <path class="fil0" d="M10.49999 7.29148c-4.2817,0 -7.7497,3.468 -7.7497,7.7497 0,3.42925 2.21836,6.3257 5.29886,7.35254 0.38749,0.0678 0.53279,-0.16469 0.53279,-0.36812 0,-0.18405 -0.00968,-0.79434 -0.00968,-1.44338 -1.94711,0.35843 -2.45085,-0.47467 -2.60584,-0.91059 -0.08719,-0.2228 -0.46498,-0.91059 -0.79434,-1.09464 -0.27125,-0.14531 -0.65873,-0.50374 -0.00969,-0.51342 0.61028,-0.00969 1.0462,0.56185 1.19151,0.79434 0.69748,1.17215 1.8115,0.84278 2.2571,0.63935 0.06781,-0.50373 0.27124,-0.84278 0.49405,-1.03652 -1.72431,-0.19374 -3.52611,-0.86215 -3.52611,-3.82641 0,-0.84278 0.30029,-1.54026 0.79434,-2.08274 -0.0775,-0.19374 -0.34874,-0.98809 0.0775,-2.05367 0,0 0.64903,-0.20343 2.13116,0.79435 0.61998,-0.17437 1.2787,-0.26156 1.93743,-0.26156 0.65872,0 1.31745,0.08719 1.93742,0.26156 1.48213,-1.00747 2.13118,-0.79435 2.13118,-0.79435 0.42622,1.06558 0.15499,1.85993 0.07749,2.05367 0.49404,0.54248 0.79435,1.23027 0.79435,2.08274 0,2.97394 -1.8115,3.63267 -3.53581,3.82641 0.28093,0.24218 0.52311,0.70716 0.52311,1.4337 0,1.03652 -0.00969,1.86961 -0.00969,2.13116 0,0.20343 0.14531,0.44561 0.53279,0.36812 3.06113,-1.02684 5.27949,-3.93298 5.27949,-7.35254 0,-4.2817 -3.468,-7.7497 -7.74971,-7.7497z"/>
 </g>
</svg>
