<?xml version="1.0" encoding="UTF-8"?>
<!DOCTYPE svg PUBLIC "-//W3C//DTD SVG 1.0//EN" "http://www.w3.org/TR/2001/REC-SVG-20010904/DTD/svg10.dtd">
<!-- Creator: CorelDRAW 2018 (64 Bit) -->
<svg xmlns="http://www.w3.org/2000/svg" xml:space="preserve" width="21cm" height="29.7cm" version="1.0" style="shape-rendering:geometricPrecision; text-rendering:geometricPrecision; image-rendering:optimizeQuality; fill-rule:evenodd; clip-rule:evenodd"
viewBox="0 0 21 29.7"
 xmlns:xlink="http://www.w3.org/1999/xlink">
 <defs>
  <style type="text/css">
   <![CDATA[
    .str1 {stroke:#373435;stroke-width:0.15;stroke-miterlimit:22.9256}
    .str0 {stroke:#8D78B6;stroke-width:0.15;stroke-miterlimit:22.9256}
    .fil7 {fill:none}
    .fil2 {fill:black}
    .fil1 {fill:#7DBBE6}
    .fil0 {fill:#9CDAF1}
    .fil5 {fill:#AD5C51}
    .fil6 {fill:#C3E4D8}
    .fil3 {fill:#F4CBB2}
    .fil4 {fill:white}
   ]]>
  </style>
 </defs>
 <g id="Camada_x0020_1">
  <metadata id="CorelCorpID_0Corel-Layer"/>
  <g id="_2959277448800">
   <path id="puddle" class="fil0" d="M11.81907 16.43144c0,0.25146 -0.58246,0.45529 -1.30087,0.45529 -0.71852,0 -1.30099,-0.20383 -1.30099,-0.45529 0,-0.25147 0.58244,-0.45534 1.30099,-0.45534 0.71841,0 1.30087,0.20391 1.30087,0.45534z"/>
   <path id="shadow-legs-left" class="fil1" d="M10.16463 16.86976l0 -0.32455c0,-0.04191 -0.00758,-0.07696 -0.02024,-0.10656 0.08393,0.06518 0.0896,0.22896 0.0896,0.22896l0 0.20825c0.07551,0.00589 0.1535,0.00946 0.23334,0.01054l-0.00211 -0.20722c-0.01156,-0.28327 -0.25435,-0.31794 -0.25435,-0.31794 -0.08873,-0.02015 -0.08741,0.02438 -0.07849,0.05315 -0.08706,-0.14846 -0.32036,-0.12928 -0.32036,-0.12928 -0.08096,0.02887 -0.00582,0.08092 -0.00582,0.08092 0.12721,0.04623 0.13876,0.18499 0.13876,0.18499l0 0.28929c0.07005,0.01201 0.14341,0.02193 0.21971,0.0294l-0.00004 0.00005z"/>
   <path id="shadow-legs-right" class="fil1" d="M11.18786 16.28509c0,0 -0.23334,-0.01918 -0.32038,0.12931 0.00892,-0.02878 0.01028,-0.07334 -0.07847,-0.05318 0,0 -0.24279,0.03468 -0.25435,0.31794l-0.00213 0.20753c0.07972,-0.0003 0.1577,-0.00311 0.23336,-0.00821l0 -0.21088c0,0 0.00569,-0.16378 0.08959,-0.22896 -0.01266,0.0296 -0.02024,0.06464 -0.02024,0.10656l0 0.32791c0.0761,-0.00666 0.14955,-0.01566 0.21967,-0.02679l0 -0.29531c0,0 0.01156,-0.13876 0.13876,-0.18499 0,-0.00012 0.07507,-0.05217 -0.00588,-0.08108l0.00007 0.00015z"/>
   <path id="cat" class="fil2" d="M12.81401 14.54407l0.00343 -0.01701c-0.38164,-0.07631 -0.77328,-0.07708 -1.01021,-0.06724 0.03892,-0.14024 0.05063,-0.3016 0.05063,-0.48155 0,-0.25808 -0.09696,-0.46454 -0.25437,-0.62164 0.02751,-0.08879 0.06425,-0.28597 -0.03669,-0.53841 0,0 -0.17809,-0.05654 -0.58089,0.21305 -0.15779,-0.03944 -0.32572,-0.05891 -0.49389,-0.05891 -0.18504,0 -0.37201,0.02356 -0.5464,0.0714 -0.41566,-0.28357 -0.59915,-0.22548 -0.59915,-0.22548 -0.11978,0.29953 -0.04572,0.5213 -0.02322,0.57638 -0.14078,0.15193 -0.22673,0.34589 -0.22673,0.58367 0,0.17952 0.02044,0.34057 0.07036,0.48054 -0.23895,-0.0087 -0.6163,-0.00535 -0.98432,0.06824l0.00337 0.01701c0.37024,-0.07405 0.74997,-0.07662 0.98746,-0.06763 0.011,0.02898 0.02326,0.05708 0.037,0.08425 -0.23486,0.00756 -0.63588,0.0375 -1.0202,0.14592l0.00473 0.01666c0.38736,-0.10922 0.79186,-0.13841 1.02445,-0.14552 0.14032,0.26157 0.41698,0.4305 0.90916,0.48355 -0.06986,0.04695 -0.14112,0.12675 -0.17,0.26177 -0.09519,0.04553 -0.39654,0.15668 -0.57734,-0.1543 0,0 -0.10121,-0.18504 -0.29493,-0.19953 0,0 -0.18792,-0.00287 -0.01297,0.11711 0,0 0.12573,0.05925 0.21249,0.28191 0,0 0.11317,0.37978 0.65931,0.25793l0 0.3923c0,0 -0.01154,0.13875 -0.13875,0.18499 0,0 -0.07516,0.05203 0.00581,0.0809 0,0 0.35262,0.02891 0.35262,-0.2601l0 -0.42777c0,0 -0.01399,-0.16965 0.06935,-0.22862l0 0.70262c0,0 -0.00575,0.16764 -0.09247,0.23124 0,0 -0.05785,0.10402 0.06935,0.07515 0,0 0.24279,-0.03468 0.25436,-0.31794l0.0055 -0.71105 0.05835 -0.00001 0.00555 0.71106c0.01155,0.28326 0.25434,0.31794 0.25434,0.31794 0.12716,0.02887 0.06936,-0.07516 0.06936,-0.07516 -0.08671,-0.0636 -0.09248,-0.23123 -0.09248,-0.23123l0 -0.69656c0.08329,0.06486 0.06936,0.22254 0.06936,0.22254l0 0.42778c0,0.28902 0.35262,0.2601 0.35262,0.2601 0.0809,-0.02887 0.00581,-0.08091 0.00581,-0.08091 -0.1272,-0.04623 -0.13876,-0.18499 -0.13876,-0.18499l0 -0.56073c0,-0.21866 -0.09207,-0.33445 -0.18211,-0.39558 0.52489,-0.05205 0.77677,-0.22153 0.89283,-0.48487 0.22992,0.00632 0.64367,0.03433 1.03944,0.14597l0.0047 -0.01665c-0.3935,-0.111 -0.80452,-0.13972 -1.03676,-0.14648 0.011,-0.0266 0.0206,-0.05426 0.02912,-0.08272 0.23575,-0.0098 0.62925,-0.00968 1.01233,0.06686l-0.00055 -0.00025z"/>
   <path id="face" class="fil3" d="M11.3445 13.96616c0.11305,0.10242 0.17919,0.2261 0.17919,0.35936 0,0.6222 -0.46382,0.63906 -1.03591,0.63906 -0.57219,0 -1.03595,-0.08616 -1.03595,-0.63906 0,-0.13238 0.0652,-0.25528 0.17685,-0.35729 0.18626,-0.17 0.50147,-0.07998 0.85909,-0.07998 0.35602,-0.00005 0.67015,-0.09099 0.85667,0.07785l0.00006 0.00006z"/>
   <path id="eye-left" class="fil4" d="M10.1432 14.35718c0,0.17138 -0.0965,0.31029 -0.21554,0.31029 -0.11904,0 -0.21555,-0.13891 -0.21555,-0.31029 0,-0.17136 0.09651,-0.31021 0.21555,-0.31021 0.11904,0.00012 0.21554,0.13888 0.21554,0.31021z"/>
   <path id="eye-right" class="fil4" d="M11.29846 14.35718c0,0.17138 -0.09651,0.31029 -0.21555,0.31029 -0.11904,0 -0.21555,-0.13891 -0.21555,-0.31029 0,-0.17136 0.09651,-0.31021 0.21555,-0.31021 0.11904,0.00012 0.21555,0.13888 0.21555,0.31021z"/>
   <path id="pupil-left" class="fil5" d="M10.07413 14.3611c0,0.11424 -0.06442,0.20681 -0.14371,0.20681 -0.07928,0 -0.14369,-0.09257 -0.14369,-0.20681 0,-0.11428 0.06436,-0.2069 0.14369,-0.2069 0.07924,0 0.14366,0.09259 0.14366,0.20685l0.00005 0.00005z"/>
   <path id="pupil-right" class="fil5" d="M11.23049 14.3611c0,0.11424 -0.06442,0.20681 -0.14371,0.20681 -0.07929,0 -0.14369,-0.09257 -0.14369,-0.20681 0,-0.11428 0.06435,-0.2069 0.14369,-0.2069 0.07924,0 0.14366,0.09259 0.14366,0.20685l0.00005 0.00005z"/>
   <g>
    <path id="nose" class="fil5" d="M10.49102 14.63274c-0.02976,0 -0.0539,0.02413 -0.0539,0.0539 0,0.02976 0.02414,0.05389 0.0539,0.05389 0.02976,0 0.05389,-0.02413 0.05389,-0.05389 0,-0.02977 -0.02413,-0.0539 -0.05389,-0.0539l0 0zm0 0l0 0 0 0z"/>
   </g>
   <path id="mouth" class="fil5" d="M10.36524 14.76904c-0.00319,-0.00903 0.00157,-0.01892 0.01054,-0.0221 0.00903,-0.00319 0.01894,0.00157 0.02211,0.01054 0.01389,0.03917 0.05103,0.06548 0.09248,0.06548 0.04144,0 0.07858,-0.0263 0.09247,-0.06548 0.00319,-0.00903 0.01307,-0.01372 0.02211,-0.01054 0.00903,0.00318 0.01372,0.01307 0.01055,0.0221 -0.01872,0.05296 -0.06906,0.08854 -0.12514,0.08854 -0.05608,0 -0.1063,-0.0354 -0.12504,-0.08843l-0.00008 -0.00011z"/>
   <path id="octo1" class="fil6" d="M9.17008 15.01557c0,0.01438 -0.01686,0.02599 -0.0376,0.02599 -0.02074,0 -0.0376,-0.01161 -0.0376,-0.02599 0,-0.01439 0.01686,-0.02604 0.0376,-0.02604 0.02074,0 0.0376,0.01163 0.0376,0.02608l0 -0.00004z"/>
   <path id="octo2" class="fil6" d="M9.27295 15.07338c0,0.01438 -0.01685,0.02599 -0.0376,0.02599 -0.02073,0 -0.0376,-0.01161 -0.0376,-0.02599 0,-0.01439 0.01687,-0.02605 0.0376,-0.02605 0.02075,0 0.0376,0.01164 0.0376,0.02609l0 -0.00004z"/>
   <path id="octo3" class="fil6" d="M9.33655 15.14857c0,0.01438 -0.01685,0.02599 -0.0376,0.02599 -0.02074,0 -0.0376,-0.01161 -0.0376,-0.02599 0,-0.01439 0.01686,-0.02604 0.0376,-0.02604 0.02074,0 0.0376,0.01163 0.0376,0.02608l0 -0.00004z"/>
   <path id="octo4" class="fil6" d="M9.39435 15.23528c0,0.01438 -0.01685,0.02599 -0.0376,0.02599 -0.02073,0 -0.0376,-0.01161 -0.0376,-0.02599 0,-0.01439 0.01687,-0.02604 0.0376,-0.02604 0.02075,0 0.0376,0.01163 0.0376,0.02608l0 -0.00004z"/>
   <path id="octo5" class="fil6" d="M9.45789 15.31624c0,0.01437 -0.01685,0.02598 -0.0376,0.02598 -0.02073,0 -0.0376,-0.01161 -0.0376,-0.02598 0,-0.0144 0.01687,-0.02605 0.0376,-0.02605 0.02075,0 0.0376,0.01163 0.0376,0.02608l0 -0.00003z"/>
   <path id="octo6" class="fil6" d="M9.54472 15.38555c0,0.01438 -0.01685,0.02599 -0.0376,0.02599 -0.02073,0 -0.0376,-0.01161 -0.0376,-0.02599 0,-0.01439 0.01687,-0.02604 0.0376,-0.02604 0.02075,0 0.0376,0.01163 0.0376,0.02608l0 -0.00004z"/>
   <path id="octo7" class="fil6" d="M9.66609 15.43185c0,0.01437 -0.01685,0.02598 -0.0376,0.02598 -0.02073,0 -0.0376,-0.01161 -0.0376,-0.02598 0,-0.0144 0.01687,-0.02605 0.0376,-0.02605 0.02075,0 0.0376,0.01163 0.0376,0.02608l0 -0.00003z"/>
   <path id="octo8" class="fil6" d="M9.78696 15.43185c0,0.01437 -0.01685,0.02598 -0.03759,0.02598 -0.02074,0 -0.0376,-0.01161 -0.0376,-0.02598 0,-0.0144 0.01686,-0.02605 0.0376,-0.02605 0.02074,0 0.03759,0.01163 0.03759,0.02608l0 -0.00003z"/>
   <path id="octo9" class="fil6" d="M9.90956 15.41176c0,0.01438 -0.01685,0.02599 -0.0376,0.02599 -0.02074,0 -0.0376,-0.01161 -0.0376,-0.02599 0,-0.01439 0.01686,-0.02605 0.0376,-0.02605 0.02074,0 0.0376,0.01164 0.0376,0.02609l0 -0.00004z"/>
   <path id="drop" class="fil0" d="M9.03203 15.09273l-0.03755 0.13083c0,0 -0.0098,0.04729 0.03478,0.05568 0.04654,-0.00091 0.0427,-0.04442 0.03947,-0.05855l-0.0367 -0.12796z"/>
  </g>
  <circle class="fil7 str0" cx="10.5" cy="14.85" r="2.56646"/>
  <circle class="fil7 str1" cx="10.5" cy="14.85" r="2.7055"/>
 </g>
</svg>
