<svg clip-rule="evenodd" fill-rule="evenodd" stroke-linejoin="round" stroke-miterlimit="1.41421" viewBox="0 0 560 400" xmlns="http://www.w3.org/2000/svg" xmlns:xlink="http://www.w3.org/1999/xlink"><linearGradient id="a" gradientTransform="matrix(0 254.68 -254.68 0 127.844 .659988)" gradientUnits="userSpaceOnUse" x1="0" x2="1" y1="0" y2="0"><stop offset="0" stop-color="#fff" stop-opacity=".25"/><stop offset="1" stop-color="#fff" stop-opacity="0"/></linearGradient><g transform="matrix(1.05404 0 0 1.05404 145.165 65.0823)"><g fill-rule="nonzero"><path d="m246.94 27.638-52.747-25.397c-6.105-2.939-13.402-1.699-18.194 3.092l-172.675 157.44c-4.645 4.235-4.639 11.547.011 15.775l14.105 12.822c3.802 3.457 9.528 3.711 13.622.606l207.941-157.749c6.976-5.292 16.996-.317 16.996 8.44v-.613c0-6.146-3.521-11.749-9.059-14.416z" fill="#0065a9"/><path d="m246.94 228.362-52.747 25.397c-6.105 2.939-13.402 1.699-18.194-3.092l-172.675-157.44c-4.645-4.234-4.639-11.547.011-15.775l14.105-12.822c3.802-3.457 9.528-3.711 13.622-.605l207.941 157.748c6.976 5.292 16.996.317 16.996-8.44v.613c0 6.146-3.521 11.749-9.059 14.416z" fill="#007acc"/><path d="m194.196 253.763c-6.107 2.937-13.404 1.696-18.196-3.096 5.904 5.904 16 1.722 16-6.628v-232.078c0-8.35-10.096-12.532-16-6.628 4.792-4.792 12.089-6.034 18.196-3.097l52.738 25.363c5.542 2.665 9.066 8.27 9.066 14.419v171.965c0 6.149-3.524 11.754-9.066 14.419z" fill="#1f9cf0"/></g><path d="m181.378 254.252c4.032 1.57 8.63 1.47 12.699-.488l52.706-25.362c5.539-2.665 9.061-8.27 9.061-14.419v-171.965c0-6.149-3.522-11.754-9.06-14.419l-52.707-25.362c-5.34-2.57-11.591-1.941-16.279 1.467-.669.487-1.307 1.03-1.906 1.629l-100.899 92.053-43.95-33.361c-4.091-3.106-9.814-2.852-13.614.605l-14.096 12.822c-4.648 4.228-4.653 11.541-.011 15.775l38.114 34.773-38.114 34.773c-4.642 4.235-4.637 11.547.011 15.775l14.096 12.822c3.8 3.457 9.523 3.711 13.614.606l43.95-33.362 100.899 92.053c1.596 1.597 3.471 2.8 5.486 3.585zm10.505-184.367-76.56 58.115 76.56 58.115z" fill="url(#a)"/></g></svg>